# sliced from cup_visual.obj
v 0.041870 0.002057 0.113000
v 0.044946 0.002208 0.138000
v 0.041876 0.001808 0.113000
v 0.041876 0.001808 0.113000
v 0.044946 0.002208 0.138000
v 0.045000 0.000000 0.138000
v 0.041920 0.000000 0.113000
v 0.041718 0.004109 0.113000
v 0.044783 0.004411 0.138000
v 0.041737 0.003861 0.113000
v 0.041737 0.003861 0.113000
v 0.044783 0.004411 0.138000
v 0.044946 0.002208 0.138000
v 0.041870 0.002057 0.113000
v 0.041467 0.006151 0.113000
v 0.044513 0.006603 0.138000
v 0.041497 0.005904 0.113000
v 0.041497 0.005904 0.113000
v 0.044513 0.006603 0.138000
v 0.044783 0.004411 0.138000
v 0.041718 0.004109 0.113000
v 0.041115 0.008178 0.113000
v 0.044135 0.008779 0.138000
v 0.041157 0.007933 0.113000
v 0.041157 0.007933 0.113000
v 0.044135 0.008779 0.138000
v 0.044513 0.006603 0.138000
v 0.041467 0.006151 0.113000
v 0.040664 0.010186 0.113000
v 0.043651 0.010934 0.138000
v 0.040719 0.009943 0.113000
v 0.040719 0.009943 0.113000
v 0.043651 0.010934 0.138000
v 0.044135 0.008779 0.138000
v 0.041115 0.008178 0.113000
v 0.040115 0.012169 0.113000
v 0.043062 0.013063 0.138000
v 0.040182 0.011929 0.113000
v 0.040182 0.011929 0.113000
v 0.043062 0.013063 0.138000
v 0.043651 0.010934 0.138000
v 0.040664 0.010186 0.113000
v 0.039470 0.014123 0.113000
v 0.042369 0.015160 0.138000
v 0.039548 0.013886 0.113000
v 0.039548 0.013886 0.113000
v 0.042369 0.015160 0.138000
v 0.043062 0.013063 0.138000
v 0.040115 0.012169 0.113000
v 0.038729 0.016042 0.113000
v 0.041575 0.017221 0.138000
v 0.038819 0.015810 0.113000
v 0.038819 0.015810 0.113000
v 0.041575 0.017221 0.138000
v 0.042369 0.015160 0.138000
v 0.039470 0.014123 0.113000
v 0.037895 0.017923 0.113000
v 0.040680 0.019240 0.138000
v 0.037996 0.017696 0.113000
v 0.037996 0.017696 0.113000
v 0.040680 0.019240 0.138000
v 0.041575 0.017221 0.138000
v 0.038729 0.016042 0.113000
v 0.036970 0.019761 0.113000
v 0.039686 0.021213 0.138000
v 0.037082 0.019539 0.113000
v 0.037082 0.019539 0.113000
v 0.039686 0.021213 0.138000
v 0.040680 0.019240 0.138000
v 0.037895 0.017923 0.113000
v 0.035956 0.021551 0.113000
v 0.038598 0.023135 0.138000
v 0.036079 0.021335 0.113000
v 0.036079 0.021335 0.113000
v 0.038598 0.023135 0.138000
v 0.039686 0.021213 0.138000
v 0.036970 0.019761 0.113000
v 0.034855 0.023290 0.113000
v 0.037416 0.025001 0.138000
v 0.034989 0.023079 0.113000
v 0.034989 0.023079 0.113000
v 0.037416 0.025001 0.138000
v 0.038598 0.023135 0.138000
v 0.035956 0.021551 0.113000
v 0.033671 0.024972 0.113000
v 0.036144 0.026806 0.138000
v 0.033814 0.024768 0.113000
v 0.033814 0.024768 0.113000
v 0.036144 0.026806 0.138000
v 0.037416 0.025001 0.138000
v 0.034855 0.023290 0.113000
v 0.032405 0.026594 0.113000
v 0.034785 0.028548 0.138000
v 0.032558 0.026398 0.113000
v 0.032558 0.026398 0.113000
v 0.034785 0.028548 0.138000
v 0.036144 0.026806 0.138000
v 0.033671 0.024972 0.113000
v 0.031061 0.028152 0.113000
v 0.033343 0.030220 0.138000
v 0.031224 0.027963 0.113000
v 0.031224 0.027963 0.113000
v 0.033343 0.030220 0.138000
v 0.034785 0.028548 0.138000
v 0.032405 0.026594 0.113000
v 0.029642 0.029642 0.113000
v 0.031820 0.031820 0.138000
v 0.029814 0.029462 0.113000
v 0.029814 0.029462 0.113000
v 0.031820 0.031820 0.138000
v 0.033343 0.030220 0.138000
v 0.031061 0.028152 0.113000
v 0.028152 0.031061 0.113000
v 0.030220 0.033343 0.138000
v 0.028332 0.030889 0.113000
v 0.028332 0.030889 0.113000
v 0.030220 0.033343 0.138000
v 0.031820 0.031820 0.138000
v 0.029642 0.029642 0.113000
v 0.026594 0.032405 0.113000
v 0.028548 0.034785 0.138000
v 0.026782 0.032242 0.113000
v 0.026782 0.032242 0.113000
v 0.028548 0.034785 0.138000
v 0.030220 0.033343 0.138000
v 0.028152 0.031061 0.113000
v 0.024972 0.033671 0.113000
v 0.026806 0.036144 0.138000
v 0.025168 0.033518 0.113000
v 0.025168 0.033518 0.113000
v 0.026806 0.036144 0.138000
v 0.028548 0.034785 0.138000
v 0.026594 0.032405 0.113000
v 0.023290 0.034855 0.113000
v 0.025001 0.037416 0.138000
v 0.023493 0.034712 0.113000
v 0.023493 0.034712 0.113000
v 0.025001 0.037416 0.138000
v 0.026806 0.036144 0.138000
v 0.024972 0.033671 0.113000
v 0.021551 0.035956 0.113000
v 0.023135 0.038598 0.138000
v 0.021762 0.035823 0.113000
v 0.021762 0.035823 0.113000
v 0.023135 0.038598 0.138000
v 0.025001 0.037416 0.138000
v 0.023290 0.034855 0.113000
v 0.019761 0.036970 0.113000
v 0.021213 0.039686 0.138000
v 0.019978 0.036848 0.113000
v 0.019978 0.036848 0.113000
v 0.021213 0.039686 0.138000
v 0.023135 0.038598 0.138000
v 0.021551 0.035956 0.113000
v 0.017923 0.037895 0.113000
v 0.019240 0.040680 0.138000
v 0.018146 0.037784 0.113000
v 0.018146 0.037784 0.113000
v 0.019240 0.040680 0.138000
v 0.021213 0.039686 0.138000
v 0.019761 0.036970 0.113000
v 0.016042 0.038729 0.113000
v 0.017221 0.041575 0.138000
v 0.016270 0.038628 0.113000
v 0.016270 0.038628 0.113000
v 0.017221 0.041575 0.138000
v 0.019240 0.040680 0.138000
v 0.017923 0.037895 0.113000
v 0.014123 0.039470 0.113000
v 0.015160 0.042369 0.138000
v 0.014355 0.039380 0.113000
v 0.014355 0.039380 0.113000
v 0.015160 0.042369 0.138000
v 0.017221 0.041575 0.138000
v 0.016042 0.038729 0.113000
v 0.012169 0.040115 0.113000
v 0.013063 0.043062 0.138000
v 0.012405 0.040037 0.113000
v 0.012405 0.040037 0.113000
v 0.013063 0.043062 0.138000
v 0.015160 0.042369 0.138000
v 0.014123 0.039470 0.113000
v 0.010186 0.040664 0.113000
v 0.010934 0.043651 0.138000
v 0.010426 0.040598 0.113000
v 0.010426 0.040598 0.113000
v 0.010934 0.043651 0.138000
v 0.013063 0.043062 0.138000
v 0.012169 0.040115 0.113000
v 0.008178 0.041115 0.113000
v 0.008779 0.044135 0.138000
v 0.008421 0.041060 0.113000
v 0.008421 0.041060 0.113000
v 0.008779 0.044135 0.138000
v 0.010934 0.043651 0.138000
v 0.010186 0.040664 0.113000
v 0.006151 0.041467 0.113000
v 0.006603 0.044513 0.138000
v 0.006396 0.041424 0.113000
v 0.006396 0.041424 0.113000
v 0.006603 0.044513 0.138000
v 0.008779 0.044135 0.138000
v 0.008178 0.041115 0.113000
v 0.004109 0.041718 0.113000
v 0.004411 0.044783 0.138000
v 0.004356 0.041688 0.113000
v 0.004356 0.041688 0.113000
v 0.004411 0.044783 0.138000
v 0.006603 0.044513 0.138000
v 0.006151 0.041467 0.113000
v 0.002057 0.041870 0.113000
v 0.002208 0.044946 0.138000
v 0.002305 0.041851 0.113000
v 0.002305 0.041851 0.113000
v 0.002208 0.044946 0.138000
v 0.004411 0.044783 0.138000
v 0.004109 0.041718 0.113000
v 0.000000 0.041920 0.113000
v 0.000000 0.045000 0.138000
v 0.000249 0.041914 0.113000
v 0.000249 0.041914 0.113000
v 0.000000 0.045000 0.138000
v 0.002208 0.044946 0.138000
v 0.002057 0.041870 0.113000
v -0.002057 0.041870 0.113000
v -0.002208 0.044946 0.138000
v -0.001808 0.041876 0.113000
v -0.001808 0.041876 0.113000
v -0.002208 0.044946 0.138000
v 0.000000 0.045000 0.138000
v 0.000000 0.041920 0.113000
v -0.004109 0.041718 0.113000
v -0.004411 0.044783 0.138000
v -0.003861 0.041737 0.113000
v -0.003861 0.041737 0.113000
v -0.004411 0.044783 0.138000
v -0.002208 0.044946 0.138000
v -0.002057 0.041870 0.113000
v -0.006151 0.041467 0.113000
v -0.006603 0.044513 0.138000
v -0.005904 0.041497 0.113000
v -0.005904 0.041497 0.113000
v -0.006603 0.044513 0.138000
v -0.004411 0.044783 0.138000
v -0.004109 0.041718 0.113000
v -0.008178 0.041115 0.113000
v -0.008779 0.044135 0.138000
v -0.007933 0.041157 0.113000
v -0.007933 0.041157 0.113000
v -0.008779 0.044135 0.138000
v -0.006603 0.044513 0.138000
v -0.006151 0.041467 0.113000
v -0.010186 0.040664 0.113000
v -0.010934 0.043651 0.138000
v -0.009943 0.040719 0.113000
v -0.009943 0.040719 0.113000
v -0.010934 0.043651 0.138000
v -0.008779 0.044135 0.138000
v -0.008178 0.041115 0.113000
v -0.012169 0.040115 0.113000
v -0.013063 0.043062 0.138000
v -0.011929 0.040182 0.113000
v -0.011929 0.040182 0.113000
v -0.013063 0.043062 0.138000
v -0.010934 0.043651 0.138000
v -0.010186 0.040664 0.113000
v -0.014123 0.039470 0.113000
v -0.015160 0.042369 0.138000
v -0.013886 0.039548 0.113000
v -0.013886 0.039548 0.113000
v -0.015160 0.042369 0.138000
v -0.013063 0.043062 0.138000
v -0.012169 0.040115 0.113000
v -0.016042 0.038729 0.113000
v -0.017221 0.041575 0.138000
v -0.015810 0.038819 0.113000
v -0.015810 0.038819 0.113000
v -0.017221 0.041575 0.138000
v -0.015160 0.042369 0.138000
v -0.014123 0.039470 0.113000
v -0.017923 0.037895 0.113000
v -0.019240 0.040680 0.138000
v -0.017696 0.037996 0.113000
v -0.017696 0.037996 0.113000
v -0.019240 0.040680 0.138000
v -0.017221 0.041575 0.138000
v -0.016042 0.038729 0.113000
v -0.019761 0.036970 0.113000
v -0.021213 0.039686 0.138000
v -0.019539 0.037082 0.113000
v -0.019539 0.037082 0.113000
v -0.021213 0.039686 0.138000
v -0.019240 0.040680 0.138000
v -0.017923 0.037895 0.113000
v -0.021551 0.035956 0.113000
v -0.023135 0.038598 0.138000
v -0.021335 0.036079 0.113000
v -0.021335 0.036079 0.113000
v -0.023135 0.038598 0.138000
v -0.021213 0.039686 0.138000
v -0.019761 0.036970 0.113000
v -0.023290 0.034855 0.113000
v -0.025001 0.037416 0.138000
v -0.023079 0.034989 0.113000
v -0.023079 0.034989 0.113000
v -0.025001 0.037416 0.138000
v -0.023135 0.038598 0.138000
v -0.021551 0.035956 0.113000
v -0.024972 0.033671 0.113000
v -0.026806 0.036144 0.138000
v -0.024768 0.033814 0.113000
v -0.024768 0.033814 0.113000
v -0.026806 0.036144 0.138000
v -0.025001 0.037416 0.138000
v -0.023290 0.034855 0.113000
v -0.026594 0.032405 0.113000
v -0.028548 0.034785 0.138000
v -0.026398 0.032558 0.113000
v -0.026398 0.032558 0.113000
v -0.028548 0.034785 0.138000
v -0.026806 0.036144 0.138000
v -0.024972 0.033671 0.113000
v -0.028152 0.031061 0.113000
v -0.030220 0.033343 0.138000
v -0.027963 0.031224 0.113000
v -0.027963 0.031224 0.113000
v -0.030220 0.033343 0.138000
v -0.028548 0.034785 0.138000
v -0.026594 0.032405 0.113000
v -0.029642 0.029642 0.113000
v -0.031820 0.031820 0.138000
v -0.029462 0.029814 0.113000
v -0.029462 0.029814 0.113000
v -0.031820 0.031820 0.138000
v -0.030220 0.033343 0.138000
v -0.028152 0.031061 0.113000
v -0.031061 0.028152 0.113000
v -0.033343 0.030220 0.138000
v -0.030889 0.028332 0.113000
v -0.030889 0.028332 0.113000
v -0.033343 0.030220 0.138000
v -0.031820 0.031820 0.138000
v -0.029642 0.029642 0.113000
v -0.032405 0.026594 0.113000
v -0.034785 0.028548 0.138000
v -0.032242 0.026782 0.113000
v -0.032242 0.026782 0.113000
v -0.034785 0.028548 0.138000
v -0.033343 0.030220 0.138000
v -0.031061 0.028152 0.113000
v -0.033671 0.024972 0.113000
v -0.036144 0.026806 0.138000
v -0.033518 0.025168 0.113000
v -0.033518 0.025168 0.113000
v -0.036144 0.026806 0.138000
v -0.034785 0.028548 0.138000
v -0.032405 0.026594 0.113000
v -0.034855 0.023290 0.113000
v -0.037416 0.025001 0.138000
v -0.034712 0.023493 0.113000
v -0.034712 0.023493 0.113000
v -0.037416 0.025001 0.138000
v -0.036144 0.026806 0.138000
v -0.033671 0.024972 0.113000
v -0.035956 0.021551 0.113000
v -0.038598 0.023135 0.138000
v -0.035823 0.021762 0.113000
v -0.035823 0.021762 0.113000
v -0.038598 0.023135 0.138000
v -0.037416 0.025001 0.138000
v -0.034855 0.023290 0.113000
v -0.036970 0.019761 0.113000
v -0.039686 0.021213 0.138000
v -0.036848 0.019978 0.113000
v -0.036848 0.019978 0.113000
v -0.039686 0.021213 0.138000
v -0.038598 0.023135 0.138000
v -0.035956 0.021551 0.113000
v -0.037895 0.017923 0.113000
v -0.040680 0.019240 0.138000
v -0.037784 0.018146 0.113000
v -0.037784 0.018146 0.113000
v -0.040680 0.019240 0.138000
v -0.039686 0.021213 0.138000
v -0.036970 0.019761 0.113000
v -0.038729 0.016042 0.113000
v -0.041575 0.017221 0.138000
v -0.038628 0.016270 0.113000
v -0.038628 0.016270 0.113000
v -0.041575 0.017221 0.138000
v -0.040680 0.019240 0.138000
v -0.037895 0.017923 0.113000
v -0.039470 0.014123 0.113000
v -0.042369 0.015160 0.138000
v -0.039380 0.014355 0.113000
v -0.039380 0.014355 0.113000
v -0.042369 0.015160 0.138000
v -0.041575 0.017221 0.138000
v -0.038729 0.016042 0.113000
v -0.040115 0.012169 0.113000
v -0.043062 0.013063 0.138000
v -0.040037 0.012405 0.113000
v -0.040037 0.012405 0.113000
v -0.043062 0.013063 0.138000
v -0.042369 0.015160 0.138000
v -0.039470 0.014123 0.113000
v -0.040664 0.010186 0.113000
v -0.043651 0.010934 0.138000
v -0.040598 0.010426 0.113000
v -0.040598 0.010426 0.113000
v -0.043651 0.010934 0.138000
v -0.043062 0.013063 0.138000
v -0.040115 0.012169 0.113000
v -0.041115 0.008178 0.113000
v -0.044135 0.008779 0.138000
v -0.041060 0.008421 0.113000
v -0.041060 0.008421 0.113000
v -0.044135 0.008779 0.138000
v -0.043651 0.010934 0.138000
v -0.040664 0.010186 0.113000
v -0.041467 0.006151 0.113000
v -0.044513 0.006603 0.138000
v -0.041424 0.006396 0.113000
v -0.041424 0.006396 0.113000
v -0.044513 0.006603 0.138000
v -0.044135 0.008779 0.138000
v -0.041115 0.008178 0.113000
v -0.041718 0.004109 0.113000
v -0.044783 0.004411 0.138000
v -0.041688 0.004356 0.113000
v -0.041688 0.004356 0.113000
v -0.044783 0.004411 0.138000
v -0.044513 0.006603 0.138000
v -0.041467 0.006151 0.113000
v -0.041870 0.002057 0.113000
v -0.044946 0.002208 0.138000
v -0.041851 0.002305 0.113000
v -0.041851 0.002305 0.113000
v -0.044946 0.002208 0.138000
v -0.044783 0.004411 0.138000
v -0.041718 0.004109 0.113000
v -0.041920 0.000000 0.113000
v -0.045000 0.000000 0.138000
v -0.041914 0.000249 0.113000
v -0.041914 0.000249 0.113000
v -0.045000 0.000000 0.138000
v -0.044946 0.002208 0.138000
v -0.041870 0.002057 0.113000
v -0.041870 -0.002057 0.113000
v -0.044946 -0.002208 0.138000
v -0.041876 -0.001808 0.113000
v -0.041876 -0.001808 0.113000
v -0.044946 -0.002208 0.138000
v -0.045000 0.000000 0.138000
v -0.041920 0.000000 0.113000
v -0.041718 -0.004109 0.113000
v -0.044783 -0.004411 0.138000
v -0.041737 -0.003861 0.113000
v -0.041737 -0.003861 0.113000
v -0.044783 -0.004411 0.138000
v -0.044946 -0.002208 0.138000
v -0.041870 -0.002057 0.113000
v -0.041467 -0.006151 0.113000
v -0.044513 -0.006603 0.138000
v -0.041497 -0.005904 0.113000
v -0.041497 -0.005904 0.113000
v -0.044513 -0.006603 0.138000
v -0.044783 -0.004411 0.138000
v -0.041718 -0.004109 0.113000
v -0.041115 -0.008178 0.113000
v -0.044135 -0.008779 0.138000
v -0.041157 -0.007933 0.113000
v -0.041157 -0.007933 0.113000
v -0.044135 -0.008779 0.138000
v -0.044513 -0.006603 0.138000
v -0.041467 -0.006151 0.113000
v -0.040664 -0.010186 0.113000
v -0.043651 -0.010934 0.138000
v -0.040719 -0.009943 0.113000
v -0.040719 -0.009943 0.113000
v -0.043651 -0.010934 0.138000
v -0.044135 -0.008779 0.138000
v -0.041115 -0.008178 0.113000
v -0.040115 -0.012169 0.113000
v -0.043062 -0.013063 0.138000
v -0.040182 -0.011929 0.113000
v -0.040182 -0.011929 0.113000
v -0.043062 -0.013063 0.138000
v -0.043651 -0.010934 0.138000
v -0.040664 -0.010186 0.113000
v -0.039470 -0.014123 0.113000
v -0.042369 -0.015160 0.138000
v -0.039548 -0.013886 0.113000
v -0.039548 -0.013886 0.113000
v -0.042369 -0.015160 0.138000
v -0.043062 -0.013063 0.138000
v -0.040115 -0.012169 0.113000
v -0.038729 -0.016042 0.113000
v -0.041575 -0.017221 0.138000
v -0.038819 -0.015810 0.113000
v -0.038819 -0.015810 0.113000
v -0.041575 -0.017221 0.138000
v -0.042369 -0.015160 0.138000
v -0.039470 -0.014123 0.113000
v -0.037895 -0.017923 0.113000
v -0.040680 -0.019240 0.138000
v -0.037996 -0.017696 0.113000
v -0.037996 -0.017696 0.113000
v -0.040680 -0.019240 0.138000
v -0.041575 -0.017221 0.138000
v -0.038729 -0.016042 0.113000
v -0.036970 -0.019761 0.113000
v -0.039686 -0.021213 0.138000
v -0.037082 -0.019539 0.113000
v -0.037082 -0.019539 0.113000
v -0.039686 -0.021213 0.138000
v -0.040680 -0.019240 0.138000
v -0.037895 -0.017923 0.113000
v -0.035956 -0.021551 0.113000
v -0.038598 -0.023135 0.138000
v -0.036079 -0.021335 0.113000
v -0.036079 -0.021335 0.113000
v -0.038598 -0.023135 0.138000
v -0.039686 -0.021213 0.138000
v -0.036970 -0.019761 0.113000
v -0.034855 -0.023290 0.113000
v -0.037416 -0.025001 0.138000
v -0.034989 -0.023079 0.113000
v -0.034989 -0.023079 0.113000
v -0.037416 -0.025001 0.138000
v -0.038598 -0.023135 0.138000
v -0.035956 -0.021551 0.113000
v -0.033671 -0.024972 0.113000
v -0.036144 -0.026806 0.138000
v -0.033814 -0.024768 0.113000
v -0.033814 -0.024768 0.113000
v -0.036144 -0.026806 0.138000
v -0.037416 -0.025001 0.138000
v -0.034855 -0.023290 0.113000
v -0.032405 -0.026594 0.113000
v -0.034785 -0.028548 0.138000
v -0.032558 -0.026398 0.113000
v -0.032558 -0.026398 0.113000
v -0.034785 -0.028548 0.138000
v -0.036144 -0.026806 0.138000
v -0.033671 -0.024972 0.113000
v -0.031061 -0.028152 0.113000
v -0.033343 -0.030220 0.138000
v -0.031224 -0.027963 0.113000
v -0.031224 -0.027963 0.113000
v -0.033343 -0.030220 0.138000
v -0.034785 -0.028548 0.138000
v -0.032405 -0.026594 0.113000
v -0.029642 -0.029642 0.113000
v -0.031820 -0.031820 0.138000
v -0.029814 -0.029462 0.113000
v -0.029814 -0.029462 0.113000
v -0.031820 -0.031820 0.138000
v -0.033343 -0.030220 0.138000
v -0.031061 -0.028152 0.113000
v -0.028152 -0.031061 0.113000
v -0.030220 -0.033343 0.138000
v -0.028332 -0.030889 0.113000
v -0.028332 -0.030889 0.113000
v -0.030220 -0.033343 0.138000
v -0.031820 -0.031820 0.138000
v -0.029642 -0.029642 0.113000
v -0.026594 -0.032405 0.113000
v -0.028548 -0.034785 0.138000
v -0.026782 -0.032242 0.113000
v -0.026782 -0.032242 0.113000
v -0.028548 -0.034785 0.138000
v -0.030220 -0.033343 0.138000
v -0.028152 -0.031061 0.113000
v -0.024972 -0.033671 0.113000
v -0.026806 -0.036144 0.138000
v -0.025168 -0.033518 0.113000
v -0.025168 -0.033518 0.113000
v -0.026806 -0.036144 0.138000
v -0.028548 -0.034785 0.138000
v -0.026594 -0.032405 0.113000
v -0.023290 -0.034855 0.113000
v -0.025001 -0.037416 0.138000
v -0.023493 -0.034712 0.113000
v -0.023493 -0.034712 0.113000
v -0.025001 -0.037416 0.138000
v -0.026806 -0.036144 0.138000
v -0.024972 -0.033671 0.113000
v -0.021551 -0.035956 0.113000
v -0.023135 -0.038598 0.138000
v -0.021762 -0.035823 0.113000
v -0.021762 -0.035823 0.113000
v -0.023135 -0.038598 0.138000
v -0.025001 -0.037416 0.138000
v -0.023290 -0.034855 0.113000
v -0.019761 -0.036970 0.113000
v -0.021213 -0.039686 0.138000
v -0.019978 -0.036848 0.113000
v -0.019978 -0.036848 0.113000
v -0.021213 -0.039686 0.138000
v -0.023135 -0.038598 0.138000
v -0.021551 -0.035956 0.113000
v -0.017923 -0.037895 0.113000
v -0.019240 -0.040680 0.138000
v -0.018146 -0.037784 0.113000
v -0.018146 -0.037784 0.113000
v -0.019240 -0.040680 0.138000
v -0.021213 -0.039686 0.138000
v -0.019761 -0.036970 0.113000
v -0.016042 -0.038729 0.113000
v -0.017221 -0.041575 0.138000
v -0.016270 -0.038628 0.113000
v -0.016270 -0.038628 0.113000
v -0.017221 -0.041575 0.138000
v -0.019240 -0.040680 0.138000
v -0.017923 -0.037895 0.113000
v -0.014123 -0.039470 0.113000
v -0.015160 -0.042369 0.138000
v -0.014355 -0.039380 0.113000
v -0.014355 -0.039380 0.113000
v -0.015160 -0.042369 0.138000
v -0.017221 -0.041575 0.138000
v -0.016042 -0.038729 0.113000
v -0.012169 -0.040115 0.113000
v -0.013063 -0.043062 0.138000
v -0.012405 -0.040037 0.113000
v -0.012405 -0.040037 0.113000
v -0.013063 -0.043062 0.138000
v -0.015160 -0.042369 0.138000
v -0.014123 -0.039470 0.113000
v -0.010186 -0.040664 0.113000
v -0.010934 -0.043651 0.138000
v -0.010426 -0.040598 0.113000
v -0.010426 -0.040598 0.113000
v -0.010934 -0.043651 0.138000
v -0.013063 -0.043062 0.138000
v -0.012169 -0.040115 0.113000
v -0.008178 -0.041115 0.113000
v -0.008779 -0.044135 0.138000
v -0.008421 -0.041060 0.113000
v -0.008421 -0.041060 0.113000
v -0.008779 -0.044135 0.138000
v -0.010934 -0.043651 0.138000
v -0.010186 -0.040664 0.113000
v -0.006151 -0.041467 0.113000
v -0.006603 -0.044513 0.138000
v -0.006396 -0.041424 0.113000
v -0.006396 -0.041424 0.113000
v -0.006603 -0.044513 0.138000
v -0.008779 -0.044135 0.138000
v -0.008178 -0.041115 0.113000
v -0.004109 -0.041718 0.113000
v -0.004411 -0.044783 0.138000
v -0.004356 -0.041688 0.113000
v -0.004356 -0.041688 0.113000
v -0.004411 -0.044783 0.138000
v -0.006603 -0.044513 0.138000
v -0.006151 -0.041467 0.113000
v -0.002057 -0.041870 0.113000
v -0.002208 -0.044946 0.138000
v -0.002305 -0.041851 0.113000
v -0.002305 -0.041851 0.113000
v -0.002208 -0.044946 0.138000
v -0.004411 -0.044783 0.138000
v -0.004109 -0.041718 0.113000
v 0.000000 -0.041920 0.113000
v -0.000000 -0.045000 0.138000
v -0.000249 -0.041914 0.113000
v -0.000249 -0.041914 0.113000
v -0.000000 -0.045000 0.138000
v -0.002208 -0.044946 0.138000
v -0.002057 -0.041870 0.113000
v 0.002057 -0.041870 0.113000
v 0.002208 -0.044946 0.138000
v 0.001808 -0.041876 0.113000
v 0.001808 -0.041876 0.113000
v 0.002208 -0.044946 0.138000
v -0.000000 -0.045000 0.138000
v 0.000000 -0.041920 0.113000
v 0.004109 -0.041718 0.113000
v 0.004411 -0.044783 0.138000
v 0.003861 -0.041737 0.113000
v 0.003861 -0.041737 0.113000
v 0.004411 -0.044783 0.138000
v 0.002208 -0.044946 0.138000
v 0.002057 -0.041870 0.113000
v 0.006151 -0.041467 0.113000
v 0.006603 -0.044513 0.138000
v 0.005904 -0.041497 0.113000
v 0.005904 -0.041497 0.113000
v 0.006603 -0.044513 0.138000
v 0.004411 -0.044783 0.138000
v 0.004109 -0.041718 0.113000
v 0.008178 -0.041115 0.113000
v 0.008779 -0.044135 0.138000
v 0.007933 -0.041157 0.113000
v 0.007933 -0.041157 0.113000
v 0.008779 -0.044135 0.138000
v 0.006603 -0.044513 0.138000
v 0.006151 -0.041467 0.113000
v 0.010186 -0.040664 0.113000
v 0.010934 -0.043651 0.138000
v 0.009943 -0.040719 0.113000
v 0.009943 -0.040719 0.113000
v 0.010934 -0.043651 0.138000
v 0.008779 -0.044135 0.138000
v 0.008178 -0.041115 0.113000
v 0.012169 -0.040115 0.113000
v 0.013063 -0.043062 0.138000
v 0.011929 -0.040182 0.113000
v 0.011929 -0.040182 0.113000
v 0.013063 -0.043062 0.138000
v 0.010934 -0.043651 0.138000
v 0.010186 -0.040664 0.113000
v 0.014123 -0.039470 0.113000
v 0.015160 -0.042369 0.138000
v 0.013886 -0.039548 0.113000
v 0.013886 -0.039548 0.113000
v 0.015160 -0.042369 0.138000
v 0.013063 -0.043062 0.138000
v 0.012169 -0.040115 0.113000
v 0.016042 -0.038729 0.113000
v 0.017221 -0.041575 0.138000
v 0.015810 -0.038819 0.113000
v 0.015810 -0.038819 0.113000
v 0.017221 -0.041575 0.138000
v 0.015160 -0.042369 0.138000
v 0.014123 -0.039470 0.113000
v 0.017923 -0.037895 0.113000
v 0.019240 -0.040680 0.138000
v 0.017696 -0.037996 0.113000
v 0.017696 -0.037996 0.113000
v 0.019240 -0.040680 0.138000
v 0.017221 -0.041575 0.138000
v 0.016042 -0.038729 0.113000
v 0.019761 -0.036970 0.113000
v 0.021213 -0.039686 0.138000
v 0.019539 -0.037082 0.113000
v 0.019539 -0.037082 0.113000
v 0.021213 -0.039686 0.138000
v 0.019240 -0.040680 0.138000
v 0.017923 -0.037895 0.113000
v 0.021551 -0.035956 0.113000
v 0.023135 -0.038598 0.138000
v 0.021335 -0.036079 0.113000
v 0.021335 -0.036079 0.113000
v 0.023135 -0.038598 0.138000
v 0.021213 -0.039686 0.138000
v 0.019761 -0.036970 0.113000
v 0.023290 -0.034855 0.113000
v 0.025001 -0.037416 0.138000
v 0.023079 -0.034989 0.113000
v 0.023079 -0.034989 0.113000
v 0.025001 -0.037416 0.138000
v 0.023135 -0.038598 0.138000
v 0.021551 -0.035956 0.113000
v 0.024972 -0.033671 0.113000
v 0.026806 -0.036144 0.138000
v 0.024768 -0.033814 0.113000
v 0.024768 -0.033814 0.113000
v 0.026806 -0.036144 0.138000
v 0.025001 -0.037416 0.138000
v 0.023290 -0.034855 0.113000
v 0.026594 -0.032405 0.113000
v 0.028548 -0.034785 0.138000
v 0.026398 -0.032558 0.113000
v 0.026398 -0.032558 0.113000
v 0.028548 -0.034785 0.138000
v 0.026806 -0.036144 0.138000
v 0.024972 -0.033671 0.113000
v 0.028152 -0.031061 0.113000
v 0.030220 -0.033343 0.138000
v 0.027963 -0.031224 0.113000
v 0.027963 -0.031224 0.113000
v 0.030220 -0.033343 0.138000
v 0.028548 -0.034785 0.138000
v 0.026594 -0.032405 0.113000
v 0.029642 -0.029642 0.113000
v 0.031820 -0.031820 0.138000
v 0.029462 -0.029814 0.113000
v 0.029462 -0.029814 0.113000
v 0.031820 -0.031820 0.138000
v 0.030220 -0.033343 0.138000
v 0.028152 -0.031061 0.113000
v 0.031061 -0.028152 0.113000
v 0.033343 -0.030220 0.138000
v 0.030889 -0.028332 0.113000
v 0.030889 -0.028332 0.113000
v 0.033343 -0.030220 0.138000
v 0.031820 -0.031820 0.138000
v 0.029642 -0.029642 0.113000
v 0.032405 -0.026594 0.113000
v 0.034785 -0.028548 0.138000
v 0.032242 -0.026782 0.113000
v 0.032242 -0.026782 0.113000
v 0.034785 -0.028548 0.138000
v 0.033343 -0.030220 0.138000
v 0.031061 -0.028152 0.113000
v 0.033671 -0.024972 0.113000
v 0.036144 -0.026806 0.138000
v 0.033518 -0.025168 0.113000
v 0.033518 -0.025168 0.113000
v 0.036144 -0.026806 0.138000
v 0.034785 -0.028548 0.138000
v 0.032405 -0.026594 0.113000
v 0.034855 -0.023290 0.113000
v 0.037416 -0.025001 0.138000
v 0.034712 -0.023493 0.113000
v 0.034712 -0.023493 0.113000
v 0.037416 -0.025001 0.138000
v 0.036144 -0.026806 0.138000
v 0.033671 -0.024972 0.113000
v 0.035956 -0.021551 0.113000
v 0.038598 -0.023135 0.138000
v 0.035823 -0.021762 0.113000
v 0.035823 -0.021762 0.113000
v 0.038598 -0.023135 0.138000
v 0.037416 -0.025001 0.138000
v 0.034855 -0.023290 0.113000
v 0.036970 -0.019761 0.113000
v 0.039686 -0.021213 0.138000
v 0.036848 -0.019978 0.113000
v 0.036848 -0.019978 0.113000
v 0.039686 -0.021213 0.138000
v 0.038598 -0.023135 0.138000
v 0.035956 -0.021551 0.113000
v 0.037895 -0.017923 0.113000
v 0.040680 -0.019240 0.138000
v 0.037784 -0.018146 0.113000
v 0.037784 -0.018146 0.113000
v 0.040680 -0.019240 0.138000
v 0.039686 -0.021213 0.138000
v 0.036970 -0.019761 0.113000
v 0.038729 -0.016042 0.113000
v 0.041575 -0.017221 0.138000
v 0.038628 -0.016270 0.113000
v 0.038628 -0.016270 0.113000
v 0.041575 -0.017221 0.138000
v 0.040680 -0.019240 0.138000
v 0.037895 -0.017923 0.113000
v 0.039470 -0.014123 0.113000
v 0.042369 -0.015160 0.138000
v 0.039380 -0.014355 0.113000
v 0.039380 -0.014355 0.113000
v 0.042369 -0.015160 0.138000
v 0.041575 -0.017221 0.138000
v 0.038729 -0.016042 0.113000
v 0.040115 -0.012169 0.113000
v 0.043062 -0.013063 0.138000
v 0.040037 -0.012405 0.113000
v 0.040037 -0.012405 0.113000
v 0.043062 -0.013063 0.138000
v 0.042369 -0.015160 0.138000
v 0.039470 -0.014123 0.113000
v 0.040664 -0.010186 0.113000
v 0.043651 -0.010934 0.138000
v 0.040598 -0.010426 0.113000
v 0.040598 -0.010426 0.113000
v 0.043651 -0.010934 0.138000
v 0.043062 -0.013063 0.138000
v 0.040115 -0.012169 0.113000
v 0.041115 -0.008178 0.113000
v 0.044135 -0.008779 0.138000
v 0.041060 -0.008421 0.113000
v 0.041060 -0.008421 0.113000
v 0.044135 -0.008779 0.138000
v 0.043651 -0.010934 0.138000
v 0.040664 -0.010186 0.113000
v 0.041467 -0.006151 0.113000
v 0.044513 -0.006603 0.138000
v 0.041424 -0.006396 0.113000
v 0.041424 -0.006396 0.113000
v 0.044513 -0.006603 0.138000
v 0.044135 -0.008779 0.138000
v 0.041115 -0.008178 0.113000
v 0.041718 -0.004109 0.113000
v 0.044783 -0.004411 0.138000
v 0.041688 -0.004356 0.113000
v 0.041688 -0.004356 0.113000
v 0.044783 -0.004411 0.138000
v 0.044513 -0.006603 0.138000
v 0.041467 -0.006151 0.113000
v 0.041870 -0.002057 0.113000
v 0.044946 -0.002208 0.138000
v 0.041851 -0.002305 0.113000
v 0.041851 -0.002305 0.113000
v 0.044946 -0.002208 0.138000
v 0.044783 -0.004411 0.138000
v 0.041718 -0.004109 0.113000
v 0.041920 0.000000 0.113000
v 0.045000 0.000000 0.138000
v 0.041914 -0.000249 0.113000
v 0.041914 -0.000249 0.113000
v 0.045000 0.000000 0.138000
v 0.044946 -0.002208 0.138000
v 0.041870 -0.002057 0.113000
v 0.045000 0.000000 0.138000
v 0.044946 0.002208 0.138000
v 0.042933 0.002109 0.138000
v 0.045000 0.000000 0.138000
v 0.042933 0.002109 0.138000
v 0.042985 0.000000 0.138000
v 0.044946 0.002208 0.138000
v 0.044783 0.004411 0.138000
v 0.042778 0.004213 0.138000
v 0.044946 0.002208 0.138000
v 0.042778 0.004213 0.138000
v 0.042933 0.002109 0.138000
v 0.044783 0.004411 0.138000
v 0.044513 0.006603 0.138000
v 0.042520 0.006307 0.138000
v 0.044783 0.004411 0.138000
v 0.042520 0.006307 0.138000
v 0.042778 0.004213 0.138000
v 0.044513 0.006603 0.138000
v 0.044135 0.008779 0.138000
v 0.042159 0.008386 0.138000
v 0.044513 0.006603 0.138000
v 0.042159 0.008386 0.138000
v 0.042520 0.006307 0.138000
v 0.044135 0.008779 0.138000
v 0.043651 0.010934 0.138000
v 0.041697 0.010444 0.138000
v 0.044135 0.008779 0.138000
v 0.041697 0.010444 0.138000
v 0.042159 0.008386 0.138000
v 0.043651 0.010934 0.138000
v 0.043062 0.013063 0.138000
v 0.041134 0.012478 0.138000
v 0.043651 0.010934 0.138000
v 0.041134 0.012478 0.138000
v 0.041697 0.010444 0.138000
v 0.043062 0.013063 0.138000
v 0.042369 0.015160 0.138000
v 0.040472 0.014481 0.138000
v 0.043062 0.013063 0.138000
v 0.040472 0.014481 0.138000
v 0.041134 0.012478 0.138000
v 0.042369 0.015160 0.138000
v 0.041575 0.017221 0.138000
v 0.039713 0.016450 0.138000
v 0.042369 0.015160 0.138000
v 0.039713 0.016450 0.138000
v 0.040472 0.014481 0.138000
v 0.041575 0.017221 0.138000
v 0.040680 0.019240 0.138000
v 0.038858 0.018378 0.138000
v 0.041575 0.017221 0.138000
v 0.038858 0.018378 0.138000
v 0.039713 0.016450 0.138000
v 0.040680 0.019240 0.138000
v 0.039686 0.021213 0.138000
v 0.037909 0.020263 0.138000
v 0.040680 0.019240 0.138000
v 0.037909 0.020263 0.138000
v 0.038858 0.018378 0.138000
v 0.039686 0.021213 0.138000
v 0.038598 0.023135 0.138000
v 0.036869 0.022099 0.138000
v 0.039686 0.021213 0.138000
v 0.036869 0.022099 0.138000
v 0.037909 0.020263 0.138000
v 0.038598 0.023135 0.138000
v 0.037416 0.025001 0.138000
v 0.035741 0.023881 0.138000
v 0.038598 0.023135 0.138000
v 0.035741 0.023881 0.138000
v 0.036869 0.022099 0.138000
v 0.037416 0.025001 0.138000
v 0.036144 0.026806 0.138000
v 0.034526 0.025606 0.138000
v 0.037416 0.025001 0.138000
v 0.034526 0.025606 0.138000
v 0.035741 0.023881 0.138000
v 0.036144 0.026806 0.138000
v 0.034785 0.028548 0.138000
v 0.033228 0.027269 0.138000
v 0.036144 0.026806 0.138000
v 0.033228 0.027269 0.138000
v 0.034526 0.025606 0.138000
v 0.034785 0.028548 0.138000
v 0.033343 0.030220 0.138000
v 0.031850 0.028867 0.138000
v 0.034785 0.028548 0.138000
v 0.031850 0.028867 0.138000
v 0.033228 0.027269 0.138000
v 0.033343 0.030220 0.138000
v 0.031820 0.031820 0.138000
v 0.030395 0.030395 0.138000
v 0.033343 0.030220 0.138000
v 0.030395 0.030395 0.138000
v 0.031850 0.028867 0.138000
v 0.031820 0.031820 0.138000
v 0.030220 0.033343 0.138000
v 0.028867 0.031850 0.138000
v 0.031820 0.031820 0.138000
v 0.028867 0.031850 0.138000
v 0.030395 0.030395 0.138000
v 0.030220 0.033343 0.138000
v 0.028548 0.034785 0.138000
v 0.027269 0.033228 0.138000
v 0.030220 0.033343 0.138000
v 0.027269 0.033228 0.138000
v 0.028867 0.031850 0.138000
v 0.028548 0.034785 0.138000
v 0.026806 0.036144 0.138000
v 0.025606 0.034526 0.138000
v 0.028548 0.034785 0.138000
v 0.025606 0.034526 0.138000
v 0.027269 0.033228 0.138000
v 0.026806 0.036144 0.138000
v 0.025001 0.037416 0.138000
v 0.023881 0.035741 0.138000
v 0.026806 0.036144 0.138000
v 0.023881 0.035741 0.138000
v 0.025606 0.034526 0.138000
v 0.025001 0.037416 0.138000
v 0.023135 0.038598 0.138000
v 0.022099 0.036869 0.138000
v 0.025001 0.037416 0.138000
v 0.022099 0.036869 0.138000
v 0.023881 0.035741 0.138000
v 0.023135 0.038598 0.138000
v 0.021213 0.039686 0.138000
v 0.020263 0.037909 0.138000
v 0.023135 0.038598 0.138000
v 0.020263 0.037909 0.138000
v 0.022099 0.036869 0.138000
v 0.021213 0.039686 0.138000
v 0.019240 0.040680 0.138000
v 0.018378 0.038858 0.138000
v 0.021213 0.039686 0.138000
v 0.018378 0.038858 0.138000
v 0.020263 0.037909 0.138000
v 0.019240 0.040680 0.138000
v 0.017221 0.041575 0.138000
v 0.016450 0.039713 0.138000
v 0.019240 0.040680 0.138000
v 0.016450 0.039713 0.138000
v 0.018378 0.038858 0.138000
v 0.017221 0.041575 0.138000
v 0.015160 0.042369 0.138000
v 0.014481 0.040472 0.138000
v 0.017221 0.041575 0.138000
v 0.014481 0.040472 0.138000
v 0.016450 0.039713 0.138000
v 0.015160 0.042369 0.138000
v 0.013063 0.043062 0.138000
v 0.012478 0.041134 0.138000
v 0.015160 0.042369 0.138000
v 0.012478 0.041134 0.138000
v 0.014481 0.040472 0.138000
v 0.013063 0.043062 0.138000
v 0.010934 0.043651 0.138000
v 0.010444 0.041697 0.138000
v 0.013063 0.043062 0.138000
v 0.010444 0.041697 0.138000
v 0.012478 0.041134 0.138000
v 0.010934 0.043651 0.138000
v 0.008779 0.044135 0.138000
v 0.008386 0.042159 0.138000
v 0.010934 0.043651 0.138000
v 0.008386 0.042159 0.138000
v 0.010444 0.041697 0.138000
v 0.008779 0.044135 0.138000
v 0.006603 0.044513 0.138000
v 0.006307 0.042520 0.138000
v 0.008779 0.044135 0.138000
v 0.006307 0.042520 0.138000
v 0.008386 0.042159 0.138000
v 0.006603 0.044513 0.138000
v 0.004411 0.044783 0.138000
v 0.004213 0.042778 0.138000
v 0.006603 0.044513 0.138000
v 0.004213 0.042778 0.138000
v 0.006307 0.042520 0.138000
v 0.004411 0.044783 0.138000
v 0.002208 0.044946 0.138000
v 0.002109 0.042933 0.138000
v 0.004411 0.044783 0.138000
v 0.002109 0.042933 0.138000
v 0.004213 0.042778 0.138000
v 0.002208 0.044946 0.138000
v 0.000000 0.045000 0.138000
v 0.000000 0.042985 0.138000
v 0.002208 0.044946 0.138000
v 0.000000 0.042985 0.138000
v 0.002109 0.042933 0.138000
v 0.000000 0.045000 0.138000
v -0.002208 0.044946 0.138000
v -0.002109 0.042933 0.138000
v 0.000000 0.045000 0.138000
v -0.002109 0.042933 0.138000
v 0.000000 0.042985 0.138000
v -0.002208 0.044946 0.138000
v -0.004411 0.044783 0.138000
v -0.004213 0.042778 0.138000
v -0.002208 0.044946 0.138000
v -0.004213 0.042778 0.138000
v -0.002109 0.042933 0.138000
v -0.004411 0.044783 0.138000
v -0.006603 0.044513 0.138000
v -0.006307 0.042520 0.138000
v -0.004411 0.044783 0.138000
v -0.006307 0.042520 0.138000
v -0.004213 0.042778 0.138000
v -0.006603 0.044513 0.138000
v -0.008779 0.044135 0.138000
v -0.008386 0.042159 0.138000
v -0.006603 0.044513 0.138000
v -0.008386 0.042159 0.138000
v -0.006307 0.042520 0.138000
v -0.008779 0.044135 0.138000
v -0.010934 0.043651 0.138000
v -0.010444 0.041697 0.138000
v -0.008779 0.044135 0.138000
v -0.010444 0.041697 0.138000
v -0.008386 0.042159 0.138000
v -0.010934 0.043651 0.138000
v -0.013063 0.043062 0.138000
v -0.012478 0.041134 0.138000
v -0.010934 0.043651 0.138000
v -0.012478 0.041134 0.138000
v -0.010444 0.041697 0.138000
v -0.013063 0.043062 0.138000
v -0.015160 0.042369 0.138000
v -0.014481 0.040472 0.138000
v -0.013063 0.043062 0.138000
v -0.014481 0.040472 0.138000
v -0.012478 0.041134 0.138000
v -0.015160 0.042369 0.138000
v -0.017221 0.041575 0.138000
v -0.016450 0.039713 0.138000
v -0.015160 0.042369 0.138000
v -0.016450 0.039713 0.138000
v -0.014481 0.040472 0.138000
v -0.017221 0.041575 0.138000
v -0.019240 0.040680 0.138000
v -0.018378 0.038858 0.138000
v -0.017221 0.041575 0.138000
v -0.018378 0.038858 0.138000
v -0.016450 0.039713 0.138000
v -0.019240 0.040680 0.138000
v -0.021213 0.039686 0.138000
v -0.020263 0.037909 0.138000
v -0.019240 0.040680 0.138000
v -0.020263 0.037909 0.138000
v -0.018378 0.038858 0.138000
v -0.021213 0.039686 0.138000
v -0.023135 0.038598 0.138000
v -0.022099 0.036869 0.138000
v -0.021213 0.039686 0.138000
v -0.022099 0.036869 0.138000
v -0.020263 0.037909 0.138000
v -0.023135 0.038598 0.138000
v -0.025001 0.037416 0.138000
v -0.023881 0.035741 0.138000
v -0.023135 0.038598 0.138000
v -0.023881 0.035741 0.138000
v -0.022099 0.036869 0.138000
v -0.025001 0.037416 0.138000
v -0.026806 0.036144 0.138000
v -0.025606 0.034526 0.138000
v -0.025001 0.037416 0.138000
v -0.025606 0.034526 0.138000
v -0.023881 0.035741 0.138000
v -0.026806 0.036144 0.138000
v -0.028548 0.034785 0.138000
v -0.027269 0.033228 0.138000
v -0.026806 0.036144 0.138000
v -0.027269 0.033228 0.138000
v -0.025606 0.034526 0.138000
v -0.028548 0.034785 0.138000
v -0.030220 0.033343 0.138000
v -0.028867 0.031850 0.138000
v -0.028548 0.034785 0.138000
v -0.028867 0.031850 0.138000
v -0.027269 0.033228 0.138000
v -0.030220 0.033343 0.138000
v -0.031820 0.031820 0.138000
v -0.030395 0.030395 0.138000
v -0.030220 0.033343 0.138000
v -0.030395 0.030395 0.138000
v -0.028867 0.031850 0.138000
v -0.031820 0.031820 0.138000
v -0.033343 0.030220 0.138000
v -0.031850 0.028867 0.138000
v -0.031820 0.031820 0.138000
v -0.031850 0.028867 0.138000
v -0.030395 0.030395 0.138000
v -0.033343 0.030220 0.138000
v -0.034785 0.028548 0.138000
v -0.033228 0.027269 0.138000
v -0.033343 0.030220 0.138000
v -0.033228 0.027269 0.138000
v -0.031850 0.028867 0.138000
v -0.034785 0.028548 0.138000
v -0.036144 0.026806 0.138000
v -0.034526 0.025606 0.138000
v -0.034785 0.028548 0.138000
v -0.034526 0.025606 0.138000
v -0.033228 0.027269 0.138000
v -0.036144 0.026806 0.138000
v -0.037416 0.025001 0.138000
v -0.035741 0.023881 0.138000
v -0.036144 0.026806 0.138000
v -0.035741 0.023881 0.138000
v -0.034526 0.025606 0.138000
v -0.037416 0.025001 0.138000
v -0.038598 0.023135 0.138000
v -0.036869 0.022099 0.138000
v -0.037416 0.025001 0.138000
v -0.036869 0.022099 0.138000
v -0.035741 0.023881 0.138000
v -0.038598 0.023135 0.138000
v -0.039686 0.021213 0.138000
v -0.037909 0.020263 0.138000
v -0.038598 0.023135 0.138000
v -0.037909 0.020263 0.138000
v -0.036869 0.022099 0.138000
v -0.039686 0.021213 0.138000
v -0.040680 0.019240 0.138000
v -0.038858 0.018378 0.138000
v -0.039686 0.021213 0.138000
v -0.038858 0.018378 0.138000
v -0.037909 0.020263 0.138000
v -0.040680 0.019240 0.138000
v -0.041575 0.017221 0.138000
v -0.039713 0.016450 0.138000
v -0.040680 0.019240 0.138000
v -0.039713 0.016450 0.138000
v -0.038858 0.018378 0.138000
v -0.041575 0.017221 0.138000
v -0.042369 0.015160 0.138000
v -0.040472 0.014481 0.138000
v -0.041575 0.017221 0.138000
v -0.040472 0.014481 0.138000
v -0.039713 0.016450 0.138000
v -0.042369 0.015160 0.138000
v -0.043062 0.013063 0.138000
v -0.041134 0.012478 0.138000
v -0.042369 0.015160 0.138000
v -0.041134 0.012478 0.138000
v -0.040472 0.014481 0.138000
v -0.043062 0.013063 0.138000
v -0.043651 0.010934 0.138000
v -0.041697 0.010444 0.138000
v -0.043062 0.013063 0.138000
v -0.041697 0.010444 0.138000
v -0.041134 0.012478 0.138000
v -0.043651 0.010934 0.138000
v -0.044135 0.008779 0.138000
v -0.042159 0.008386 0.138000
v -0.043651 0.010934 0.138000
v -0.042159 0.008386 0.138000
v -0.041697 0.010444 0.138000
v -0.044135 0.008779 0.138000
v -0.044513 0.006603 0.138000
v -0.042520 0.006307 0.138000
v -0.044135 0.008779 0.138000
v -0.042520 0.006307 0.138000
v -0.042159 0.008386 0.138000
v -0.044513 0.006603 0.138000
v -0.044783 0.004411 0.138000
v -0.042778 0.004213 0.138000
v -0.044513 0.006603 0.138000
v -0.042778 0.004213 0.138000
v -0.042520 0.006307 0.138000
v -0.044783 0.004411 0.138000
v -0.044946 0.002208 0.138000
v -0.042933 0.002109 0.138000
v -0.044783 0.004411 0.138000
v -0.042933 0.002109 0.138000
v -0.042778 0.004213 0.138000
v -0.044946 0.002208 0.138000
v -0.045000 0.000000 0.138000
v -0.042985 0.000000 0.138000
v -0.044946 0.002208 0.138000
v -0.042985 0.000000 0.138000
v -0.042933 0.002109 0.138000
v -0.045000 0.000000 0.138000
v -0.044946 -0.002208 0.138000
v -0.042933 -0.002109 0.138000
v -0.045000 0.000000 0.138000
v -0.042933 -0.002109 0.138000
v -0.042985 0.000000 0.138000
v -0.044946 -0.002208 0.138000
v -0.044783 -0.004411 0.138000
v -0.042778 -0.004213 0.138000
v -0.044946 -0.002208 0.138000
v -0.042778 -0.004213 0.138000
v -0.042933 -0.002109 0.138000
v -0.044783 -0.004411 0.138000
v -0.044513 -0.006603 0.138000
v -0.042520 -0.006307 0.138000
v -0.044783 -0.004411 0.138000
v -0.042520 -0.006307 0.138000
v -0.042778 -0.004213 0.138000
v -0.044513 -0.006603 0.138000
v -0.044135 -0.008779 0.138000
v -0.042159 -0.008386 0.138000
v -0.044513 -0.006603 0.138000
v -0.042159 -0.008386 0.138000
v -0.042520 -0.006307 0.138000
v -0.044135 -0.008779 0.138000
v -0.043651 -0.010934 0.138000
v -0.041697 -0.010444 0.138000
v -0.044135 -0.008779 0.138000
v -0.041697 -0.010444 0.138000
v -0.042159 -0.008386 0.138000
v -0.043651 -0.010934 0.138000
v -0.043062 -0.013063 0.138000
v -0.041134 -0.012478 0.138000
v -0.043651 -0.010934 0.138000
v -0.041134 -0.012478 0.138000
v -0.041697 -0.010444 0.138000
v -0.043062 -0.013063 0.138000
v -0.042369 -0.015160 0.138000
v -0.040472 -0.014481 0.138000
v -0.043062 -0.013063 0.138000
v -0.040472 -0.014481 0.138000
v -0.041134 -0.012478 0.138000
v -0.042369 -0.015160 0.138000
v -0.041575 -0.017221 0.138000
v -0.039713 -0.016450 0.138000
v -0.042369 -0.015160 0.138000
v -0.039713 -0.016450 0.138000
v -0.040472 -0.014481 0.138000
v -0.041575 -0.017221 0.138000
v -0.040680 -0.019240 0.138000
v -0.038858 -0.018378 0.138000
v -0.041575 -0.017221 0.138000
v -0.038858 -0.018378 0.138000
v -0.039713 -0.016450 0.138000
v -0.040680 -0.019240 0.138000
v -0.039686 -0.021213 0.138000
v -0.037909 -0.020263 0.138000
v -0.040680 -0.019240 0.138000
v -0.037909 -0.020263 0.138000
v -0.038858 -0.018378 0.138000
v -0.039686 -0.021213 0.138000
v -0.038598 -0.023135 0.138000
v -0.036869 -0.022099 0.138000
v -0.039686 -0.021213 0.138000
v -0.036869 -0.022099 0.138000
v -0.037909 -0.020263 0.138000
v -0.038598 -0.023135 0.138000
v -0.037416 -0.025001 0.138000
v -0.035741 -0.023881 0.138000
v -0.038598 -0.023135 0.138000
v -0.035741 -0.023881 0.138000
v -0.036869 -0.022099 0.138000
v -0.037416 -0.025001 0.138000
v -0.036144 -0.026806 0.138000
v -0.034526 -0.025606 0.138000
v -0.037416 -0.025001 0.138000
v -0.034526 -0.025606 0.138000
v -0.035741 -0.023881 0.138000
v -0.036144 -0.026806 0.138000
v -0.034785 -0.028548 0.138000
v -0.033228 -0.027269 0.138000
v -0.036144 -0.026806 0.138000
v -0.033228 -0.027269 0.138000
v -0.034526 -0.025606 0.138000
v -0.034785 -0.028548 0.138000
v -0.033343 -0.030220 0.138000
v -0.031850 -0.028867 0.138000
v -0.034785 -0.028548 0.138000
v -0.031850 -0.028867 0.138000
v -0.033228 -0.027269 0.138000
v -0.033343 -0.030220 0.138000
v -0.031820 -0.031820 0.138000
v -0.030395 -0.030395 0.138000
v -0.033343 -0.030220 0.138000
v -0.030395 -0.030395 0.138000
v -0.031850 -0.028867 0.138000
v -0.031820 -0.031820 0.138000
v -0.030220 -0.033343 0.138000
v -0.028867 -0.031850 0.138000
v -0.031820 -0.031820 0.138000
v -0.028867 -0.031850 0.138000
v -0.030395 -0.030395 0.138000
v -0.030220 -0.033343 0.138000
v -0.028548 -0.034785 0.138000
v -0.027269 -0.033228 0.138000
v -0.030220 -0.033343 0.138000
v -0.027269 -0.033228 0.138000
v -0.028867 -0.031850 0.138000
v -0.028548 -0.034785 0.138000
v -0.026806 -0.036144 0.138000
v -0.025606 -0.034526 0.138000
v -0.028548 -0.034785 0.138000
v -0.025606 -0.034526 0.138000
v -0.027269 -0.033228 0.138000
v -0.026806 -0.036144 0.138000
v -0.025001 -0.037416 0.138000
v -0.023881 -0.035741 0.138000
v -0.026806 -0.036144 0.138000
v -0.023881 -0.035741 0.138000
v -0.025606 -0.034526 0.138000
v -0.025001 -0.037416 0.138000
v -0.023135 -0.038598 0.138000
v -0.022099 -0.036869 0.138000
v -0.025001 -0.037416 0.138000
v -0.022099 -0.036869 0.138000
v -0.023881 -0.035741 0.138000
v -0.023135 -0.038598 0.138000
v -0.021213 -0.039686 0.138000
v -0.020263 -0.037909 0.138000
v -0.023135 -0.038598 0.138000
v -0.020263 -0.037909 0.138000
v -0.022099 -0.036869 0.138000
v -0.021213 -0.039686 0.138000
v -0.019240 -0.040680 0.138000
v -0.018378 -0.038858 0.138000
v -0.021213 -0.039686 0.138000
v -0.018378 -0.038858 0.138000
v -0.020263 -0.037909 0.138000
v -0.019240 -0.040680 0.138000
v -0.017221 -0.041575 0.138000
v -0.016450 -0.039713 0.138000
v -0.019240 -0.040680 0.138000
v -0.016450 -0.039713 0.138000
v -0.018378 -0.038858 0.138000
v -0.017221 -0.041575 0.138000
v -0.015160 -0.042369 0.138000
v -0.014481 -0.040472 0.138000
v -0.017221 -0.041575 0.138000
v -0.014481 -0.040472 0.138000
v -0.016450 -0.039713 0.138000
v -0.015160 -0.042369 0.138000
v -0.013063 -0.043062 0.138000
v -0.012478 -0.041134 0.138000
v -0.015160 -0.042369 0.138000
v -0.012478 -0.041134 0.138000
v -0.014481 -0.040472 0.138000
v -0.013063 -0.043062 0.138000
v -0.010934 -0.043651 0.138000
v -0.010444 -0.041697 0.138000
v -0.013063 -0.043062 0.138000
v -0.010444 -0.041697 0.138000
v -0.012478 -0.041134 0.138000
v -0.010934 -0.043651 0.138000
v -0.008779 -0.044135 0.138000
v -0.008386 -0.042159 0.138000
v -0.010934 -0.043651 0.138000
v -0.008386 -0.042159 0.138000
v -0.010444 -0.041697 0.138000
v -0.008779 -0.044135 0.138000
v -0.006603 -0.044513 0.138000
v -0.006307 -0.042520 0.138000
v -0.008779 -0.044135 0.138000
v -0.006307 -0.042520 0.138000
v -0.008386 -0.042159 0.138000
v -0.006603 -0.044513 0.138000
v -0.004411 -0.044783 0.138000
v -0.004213 -0.042778 0.138000
v -0.006603 -0.044513 0.138000
v -0.004213 -0.042778 0.138000
v -0.006307 -0.042520 0.138000
v -0.004411 -0.044783 0.138000
v -0.002208 -0.044946 0.138000
v -0.002109 -0.042933 0.138000
v -0.004411 -0.044783 0.138000
v -0.002109 -0.042933 0.138000
v -0.004213 -0.042778 0.138000
v -0.002208 -0.044946 0.138000
v -0.000000 -0.045000 0.138000
v -0.000000 -0.042985 0.138000
v -0.002208 -0.044946 0.138000
v -0.000000 -0.042985 0.138000
v -0.002109 -0.042933 0.138000
v -0.000000 -0.045000 0.138000
v 0.002208 -0.044946 0.138000
v 0.002109 -0.042933 0.138000
v -0.000000 -0.045000 0.138000
v 0.002109 -0.042933 0.138000
v -0.000000 -0.042985 0.138000
v 0.002208 -0.044946 0.138000
v 0.004411 -0.044783 0.138000
v 0.004213 -0.042778 0.138000
v 0.002208 -0.044946 0.138000
v 0.004213 -0.042778 0.138000
v 0.002109 -0.042933 0.138000
v 0.004411 -0.044783 0.138000
v 0.006603 -0.044513 0.138000
v 0.006307 -0.042520 0.138000
v 0.004411 -0.044783 0.138000
v 0.006307 -0.042520 0.138000
v 0.004213 -0.042778 0.138000
v 0.006603 -0.044513 0.138000
v 0.008779 -0.044135 0.138000
v 0.008386 -0.042159 0.138000
v 0.006603 -0.044513 0.138000
v 0.008386 -0.042159 0.138000
v 0.006307 -0.042520 0.138000
v 0.008779 -0.044135 0.138000
v 0.010934 -0.043651 0.138000
v 0.010444 -0.041697 0.138000
v 0.008779 -0.044135 0.138000
v 0.010444 -0.041697 0.138000
v 0.008386 -0.042159 0.138000
v 0.010934 -0.043651 0.138000
v 0.013063 -0.043062 0.138000
v 0.012478 -0.041134 0.138000
v 0.010934 -0.043651 0.138000
v 0.012478 -0.041134 0.138000
v 0.010444 -0.041697 0.138000
v 0.013063 -0.043062 0.138000
v 0.015160 -0.042369 0.138000
v 0.014481 -0.040472 0.138000
v 0.013063 -0.043062 0.138000
v 0.014481 -0.040472 0.138000
v 0.012478 -0.041134 0.138000
v 0.015160 -0.042369 0.138000
v 0.017221 -0.041575 0.138000
v 0.016450 -0.039713 0.138000
v 0.015160 -0.042369 0.138000
v 0.016450 -0.039713 0.138000
v 0.014481 -0.040472 0.138000
v 0.017221 -0.041575 0.138000
v 0.019240 -0.040680 0.138000
v 0.018378 -0.038858 0.138000
v 0.017221 -0.041575 0.138000
v 0.018378 -0.038858 0.138000
v 0.016450 -0.039713 0.138000
v 0.019240 -0.040680 0.138000
v 0.021213 -0.039686 0.138000
v 0.020263 -0.037909 0.138000
v 0.019240 -0.040680 0.138000
v 0.020263 -0.037909 0.138000
v 0.018378 -0.038858 0.138000
v 0.021213 -0.039686 0.138000
v 0.023135 -0.038598 0.138000
v 0.022099 -0.036869 0.138000
v 0.021213 -0.039686 0.138000
v 0.022099 -0.036869 0.138000
v 0.020263 -0.037909 0.138000
v 0.023135 -0.038598 0.138000
v 0.025001 -0.037416 0.138000
v 0.023881 -0.035741 0.138000
v 0.023135 -0.038598 0.138000
v 0.023881 -0.035741 0.138000
v 0.022099 -0.036869 0.138000
v 0.025001 -0.037416 0.138000
v 0.026806 -0.036144 0.138000
v 0.025606 -0.034526 0.138000
v 0.025001 -0.037416 0.138000
v 0.025606 -0.034526 0.138000
v 0.023881 -0.035741 0.138000
v 0.026806 -0.036144 0.138000
v 0.028548 -0.034785 0.138000
v 0.027269 -0.033228 0.138000
v 0.026806 -0.036144 0.138000
v 0.027269 -0.033228 0.138000
v 0.025606 -0.034526 0.138000
v 0.028548 -0.034785 0.138000
v 0.030220 -0.033343 0.138000
v 0.028867 -0.031850 0.138000
v 0.028548 -0.034785 0.138000
v 0.028867 -0.031850 0.138000
v 0.027269 -0.033228 0.138000
v 0.030220 -0.033343 0.138000
v 0.031820 -0.031820 0.138000
v 0.030395 -0.030395 0.138000
v 0.030220 -0.033343 0.138000
v 0.030395 -0.030395 0.138000
v 0.028867 -0.031850 0.138000
v 0.031820 -0.031820 0.138000
v 0.033343 -0.030220 0.138000
v 0.031850 -0.028867 0.138000
v 0.031820 -0.031820 0.138000
v 0.031850 -0.028867 0.138000
v 0.030395 -0.030395 0.138000
v 0.033343 -0.030220 0.138000
v 0.034785 -0.028548 0.138000
v 0.033228 -0.027269 0.138000
v 0.033343 -0.030220 0.138000
v 0.033228 -0.027269 0.138000
v 0.031850 -0.028867 0.138000
v 0.034785 -0.028548 0.138000
v 0.036144 -0.026806 0.138000
v 0.034526 -0.025606 0.138000
v 0.034785 -0.028548 0.138000
v 0.034526 -0.025606 0.138000
v 0.033228 -0.027269 0.138000
v 0.036144 -0.026806 0.138000
v 0.037416 -0.025001 0.138000
v 0.035741 -0.023881 0.138000
v 0.036144 -0.026806 0.138000
v 0.035741 -0.023881 0.138000
v 0.034526 -0.025606 0.138000
v 0.037416 -0.025001 0.138000
v 0.038598 -0.023135 0.138000
v 0.036869 -0.022099 0.138000
v 0.037416 -0.025001 0.138000
v 0.036869 -0.022099 0.138000
v 0.035741 -0.023881 0.138000
v 0.038598 -0.023135 0.138000
v 0.039686 -0.021213 0.138000
v 0.037909 -0.020263 0.138000
v 0.038598 -0.023135 0.138000
v 0.037909 -0.020263 0.138000
v 0.036869 -0.022099 0.138000
v 0.039686 -0.021213 0.138000
v 0.040680 -0.019240 0.138000
v 0.038858 -0.018378 0.138000
v 0.039686 -0.021213 0.138000
v 0.038858 -0.018378 0.138000
v 0.037909 -0.020263 0.138000
v 0.040680 -0.019240 0.138000
v 0.041575 -0.017221 0.138000
v 0.039713 -0.016450 0.138000
v 0.040680 -0.019240 0.138000
v 0.039713 -0.016450 0.138000
v 0.038858 -0.018378 0.138000
v 0.041575 -0.017221 0.138000
v 0.042369 -0.015160 0.138000
v 0.040472 -0.014481 0.138000
v 0.041575 -0.017221 0.138000
v 0.040472 -0.014481 0.138000
v 0.039713 -0.016450 0.138000
v 0.042369 -0.015160 0.138000
v 0.043062 -0.013063 0.138000
v 0.041134 -0.012478 0.138000
v 0.042369 -0.015160 0.138000
v 0.041134 -0.012478 0.138000
v 0.040472 -0.014481 0.138000
v 0.043062 -0.013063 0.138000
v 0.043651 -0.010934 0.138000
v 0.041697 -0.010444 0.138000
v 0.043062 -0.013063 0.138000
v 0.041697 -0.010444 0.138000
v 0.041134 -0.012478 0.138000
v 0.043651 -0.010934 0.138000
v 0.044135 -0.008779 0.138000
v 0.042159 -0.008386 0.138000
v 0.043651 -0.010934 0.138000
v 0.042159 -0.008386 0.138000
v 0.041697 -0.010444 0.138000
v 0.044135 -0.008779 0.138000
v 0.044513 -0.006603 0.138000
v 0.042520 -0.006307 0.138000
v 0.044135 -0.008779 0.138000
v 0.042520 -0.006307 0.138000
v 0.042159 -0.008386 0.138000
v 0.044513 -0.006603 0.138000
v 0.044783 -0.004411 0.138000
v 0.042778 -0.004213 0.138000
v 0.044513 -0.006603 0.138000
v 0.042778 -0.004213 0.138000
v 0.042520 -0.006307 0.138000
v 0.044783 -0.004411 0.138000
v 0.044946 -0.002208 0.138000
v 0.042933 -0.002109 0.138000
v 0.044783 -0.004411 0.138000
v 0.042933 -0.002109 0.138000
v 0.042778 -0.004213 0.138000
v 0.044946 -0.002208 0.138000
v 0.045000 0.000000 0.138000
v 0.042985 0.000000 0.138000
v 0.044946 -0.002208 0.138000
v 0.042985 0.000000 0.138000
v 0.042933 -0.002109 0.138000
v 0.042985 0.000000 0.138000
v 0.042933 0.002109 0.138000
v 0.039857 0.001958 0.113000
v 0.039899 0.000237 0.113000
v 0.042985 0.000000 0.138000
v 0.039899 0.000237 0.113000
v 0.039905 0.000000 0.113000
v 0.042933 0.002109 0.138000
v 0.042778 0.004213 0.138000
v 0.039713 0.003911 0.113000
v 0.039840 0.002194 0.113000
v 0.042933 0.002109 0.138000
v 0.039840 0.002194 0.113000
v 0.039857 0.001958 0.113000
v 0.042778 0.004213 0.138000
v 0.042520 0.006307 0.138000
v 0.039473 0.005855 0.113000
v 0.039684 0.004146 0.113000
v 0.042778 0.004213 0.138000
v 0.039684 0.004146 0.113000
v 0.039713 0.003911 0.113000
v 0.042520 0.006307 0.138000
v 0.042159 0.008386 0.138000
v 0.039138 0.007785 0.113000
v 0.039433 0.006088 0.113000
v 0.042520 0.006307 0.138000
v 0.039433 0.006088 0.113000
v 0.039473 0.005855 0.113000
v 0.042159 0.008386 0.138000
v 0.041697 0.010444 0.138000
v 0.038709 0.009696 0.113000
v 0.039087 0.008016 0.113000
v 0.042159 0.008386 0.138000
v 0.039087 0.008016 0.113000
v 0.039138 0.007785 0.113000
v 0.041697 0.010444 0.138000
v 0.041134 0.012478 0.138000
v 0.038187 0.011584 0.113000
v 0.038646 0.009924 0.113000
v 0.041697 0.010444 0.138000
v 0.038646 0.009924 0.113000
v 0.038709 0.009696 0.113000
v 0.041134 0.012478 0.138000
v 0.040472 0.014481 0.138000
v 0.037572 0.013444 0.113000
v 0.038113 0.011809 0.113000
v 0.041134 0.012478 0.138000
v 0.038113 0.011809 0.113000
v 0.038187 0.011584 0.113000
v 0.040472 0.014481 0.138000
v 0.039713 0.016450 0.138000
v 0.036868 0.015271 0.113000
v 0.037487 0.013664 0.113000
v 0.040472 0.014481 0.138000
v 0.037487 0.013664 0.113000
v 0.037572 0.013444 0.113000
v 0.039713 0.016450 0.138000
v 0.038858 0.018378 0.138000
v 0.036074 0.017062 0.113000
v 0.036772 0.015487 0.113000
v 0.039713 0.016450 0.138000
v 0.036772 0.015487 0.113000
v 0.036868 0.015271 0.113000
v 0.038858 0.018378 0.138000
v 0.037909 0.020263 0.138000
v 0.035193 0.018811 0.113000
v 0.035967 0.017273 0.113000
v 0.038858 0.018378 0.138000
v 0.035967 0.017273 0.113000
v 0.036074 0.017062 0.113000
v 0.037909 0.020263 0.138000
v 0.036869 0.022099 0.138000
v 0.034228 0.020515 0.113000
v 0.035077 0.019017 0.113000
v 0.037909 0.020263 0.138000
v 0.035077 0.019017 0.113000
v 0.035193 0.018811 0.113000
v 0.036869 0.022099 0.138000
v 0.035741 0.023881 0.138000
v 0.033180 0.022170 0.113000
v 0.034101 0.020715 0.113000
v 0.036869 0.022099 0.138000
v 0.034101 0.020715 0.113000
v 0.034228 0.020515 0.113000
v 0.035741 0.023881 0.138000
v 0.034526 0.025606 0.138000
v 0.032052 0.023771 0.113000
v 0.033044 0.022364 0.113000
v 0.035741 0.023881 0.138000
v 0.033044 0.022364 0.113000
v 0.033180 0.022170 0.113000
v 0.034526 0.025606 0.138000
v 0.033228 0.027269 0.138000
v 0.030847 0.025316 0.113000
v 0.031907 0.023958 0.113000
v 0.034526 0.025606 0.138000
v 0.031907 0.023958 0.113000
v 0.032052 0.023771 0.113000
v 0.033228 0.027269 0.138000
v 0.031850 0.028867 0.138000
v 0.029568 0.026799 0.113000
v 0.030693 0.025495 0.113000
v 0.033228 0.027269 0.138000
v 0.030693 0.025495 0.113000
v 0.030847 0.025316 0.113000
v 0.031850 0.028867 0.138000
v 0.030395 0.030395 0.138000
v 0.028217 0.028217 0.113000
v 0.029405 0.026970 0.113000
v 0.031850 0.028867 0.138000
v 0.029405 0.026970 0.113000
v 0.029568 0.026799 0.113000
v 0.030395 0.030395 0.138000
v 0.028867 0.031850 0.138000
v 0.026799 0.029568 0.113000
v 0.028046 0.028380 0.113000
v 0.030395 0.030395 0.138000
v 0.028046 0.028380 0.113000
v 0.028217 0.028217 0.113000
v 0.028867 0.031850 0.138000
v 0.027269 0.033228 0.138000
v 0.025316 0.030847 0.113000
v 0.026619 0.029722 0.113000
v 0.028867 0.031850 0.138000
v 0.026619 0.029722 0.113000
v 0.026799 0.029568 0.113000
v 0.027269 0.033228 0.138000
v 0.025606 0.034526 0.138000
v 0.023771 0.032052 0.113000
v 0.025129 0.030993 0.113000
v 0.027269 0.033228 0.138000
v 0.025129 0.030993 0.113000
v 0.025316 0.030847 0.113000
v 0.025606 0.034526 0.138000
v 0.023881 0.035741 0.138000
v 0.022170 0.033180 0.113000
v 0.023578 0.032188 0.113000
v 0.025606 0.034526 0.138000
v 0.023578 0.032188 0.113000
v 0.023771 0.032052 0.113000
v 0.023881 0.035741 0.138000
v 0.022099 0.036869 0.138000
v 0.020515 0.034228 0.113000
v 0.021970 0.033307 0.113000
v 0.023881 0.035741 0.138000
v 0.021970 0.033307 0.113000
v 0.022170 0.033180 0.113000
v 0.022099 0.036869 0.138000
v 0.020263 0.037909 0.138000
v 0.018811 0.035193 0.113000
v 0.020309 0.034344 0.113000
v 0.022099 0.036869 0.138000
v 0.020309 0.034344 0.113000
v 0.020515 0.034228 0.113000
v 0.020263 0.037909 0.138000
v 0.018378 0.038858 0.138000
v 0.017062 0.036074 0.113000
v 0.018600 0.035300 0.113000
v 0.020263 0.037909 0.138000
v 0.018600 0.035300 0.113000
v 0.018811 0.035193 0.113000
v 0.018378 0.038858 0.138000
v 0.016450 0.039713 0.138000
v 0.015271 0.036868 0.113000
v 0.016845 0.036170 0.113000
v 0.018378 0.038858 0.138000
v 0.016845 0.036170 0.113000
v 0.017062 0.036074 0.113000
v 0.016450 0.039713 0.138000
v 0.014481 0.040472 0.138000
v 0.013444 0.037572 0.113000
v 0.015050 0.036953 0.113000
v 0.016450 0.039713 0.138000
v 0.015050 0.036953 0.113000
v 0.015271 0.036868 0.113000
v 0.014481 0.040472 0.138000
v 0.012478 0.041134 0.138000
v 0.011584 0.038187 0.113000
v 0.013219 0.037647 0.113000
v 0.014481 0.040472 0.138000
v 0.013219 0.037647 0.113000
v 0.013444 0.037572 0.113000
v 0.012478 0.041134 0.138000
v 0.010444 0.041697 0.138000
v 0.009696 0.038709 0.113000
v 0.011356 0.038250 0.113000
v 0.012478 0.041134 0.138000
v 0.011356 0.038250 0.113000
v 0.011584 0.038187 0.113000
v 0.010444 0.041697 0.138000
v 0.008386 0.042159 0.138000
v 0.007785 0.039138 0.113000
v 0.009465 0.038761 0.113000
v 0.010444 0.041697 0.138000
v 0.009465 0.038761 0.113000
v 0.009696 0.038709 0.113000
v 0.008386 0.042159 0.138000
v 0.006307 0.042520 0.138000
v 0.005855 0.039473 0.113000
v 0.007552 0.039179 0.113000
v 0.008386 0.042159 0.138000
v 0.007552 0.039179 0.113000
v 0.007785 0.039138 0.113000
v 0.006307 0.042520 0.138000
v 0.004213 0.042778 0.138000
v 0.003911 0.039713 0.113000
v 0.005620 0.039502 0.113000
v 0.006307 0.042520 0.138000
v 0.005620 0.039502 0.113000
v 0.005855 0.039473 0.113000
v 0.004213 0.042778 0.138000
v 0.002109 0.042933 0.138000
v 0.001958 0.039857 0.113000
v 0.003675 0.039730 0.113000
v 0.004213 0.042778 0.138000
v 0.003675 0.039730 0.113000
v 0.003911 0.039713 0.113000
v 0.002109 0.042933 0.138000
v 0.000000 0.042985 0.138000
v 0.000000 0.039905 0.113000
v 0.001721 0.039863 0.113000
v 0.002109 0.042933 0.138000
v 0.001721 0.039863 0.113000
v 0.001958 0.039857 0.113000
v 0.000000 0.042985 0.138000
v -0.002109 0.042933 0.138000
v -0.001958 0.039857 0.113000
v -0.000237 0.039899 0.113000
v 0.000000 0.042985 0.138000
v -0.000237 0.039899 0.113000
v 0.000000 0.039905 0.113000
v -0.002109 0.042933 0.138000
v -0.004213 0.042778 0.138000
v -0.003911 0.039713 0.113000
v -0.002194 0.039840 0.113000
v -0.002109 0.042933 0.138000
v -0.002194 0.039840 0.113000
v -0.001958 0.039857 0.113000
v -0.004213 0.042778 0.138000
v -0.006307 0.042520 0.138000
v -0.005855 0.039473 0.113000
v -0.004146 0.039684 0.113000
v -0.004213 0.042778 0.138000
v -0.004146 0.039684 0.113000
v -0.003911 0.039713 0.113000
v -0.006307 0.042520 0.138000
v -0.008386 0.042159 0.138000
v -0.007785 0.039138 0.113000
v -0.006088 0.039433 0.113000
v -0.006307 0.042520 0.138000
v -0.006088 0.039433 0.113000
v -0.005855 0.039473 0.113000
v -0.008386 0.042159 0.138000
v -0.010444 0.041697 0.138000
v -0.009696 0.038709 0.113000
v -0.008016 0.039087 0.113000
v -0.008386 0.042159 0.138000
v -0.008016 0.039087 0.113000
v -0.007785 0.039138 0.113000
v -0.010444 0.041697 0.138000
v -0.012478 0.041134 0.138000
v -0.011584 0.038187 0.113000
v -0.009924 0.038646 0.113000
v -0.010444 0.041697 0.138000
v -0.009924 0.038646 0.113000
v -0.009696 0.038709 0.113000
v -0.012478 0.041134 0.138000
v -0.014481 0.040472 0.138000
v -0.013444 0.037572 0.113000
v -0.011809 0.038113 0.113000
v -0.012478 0.041134 0.138000
v -0.011809 0.038113 0.113000
v -0.011584 0.038187 0.113000
v -0.014481 0.040472 0.138000
v -0.016450 0.039713 0.138000
v -0.015271 0.036868 0.113000
v -0.013664 0.037487 0.113000
v -0.014481 0.040472 0.138000
v -0.013664 0.037487 0.113000
v -0.013444 0.037572 0.113000
v -0.016450 0.039713 0.138000
v -0.018378 0.038858 0.138000
v -0.017062 0.036074 0.113000
v -0.015487 0.036772 0.113000
v -0.016450 0.039713 0.138000
v -0.015487 0.036772 0.113000
v -0.015271 0.036868 0.113000
v -0.018378 0.038858 0.138000
v -0.020263 0.037909 0.138000
v -0.018811 0.035193 0.113000
v -0.017273 0.035967 0.113000
v -0.018378 0.038858 0.138000
v -0.017273 0.035967 0.113000
v -0.017062 0.036074 0.113000
v -0.020263 0.037909 0.138000
v -0.022099 0.036869 0.138000
v -0.020515 0.034228 0.113000
v -0.019017 0.035077 0.113000
v -0.020263 0.037909 0.138000
v -0.019017 0.035077 0.113000
v -0.018811 0.035193 0.113000
v -0.022099 0.036869 0.138000
v -0.023881 0.035741 0.138000
v -0.022170 0.033180 0.113000
v -0.020715 0.034101 0.113000
v -0.022099 0.036869 0.138000
v -0.020715 0.034101 0.113000
v -0.020515 0.034228 0.113000
v -0.023881 0.035741 0.138000
v -0.025606 0.034526 0.138000
v -0.023771 0.032052 0.113000
v -0.022364 0.033044 0.113000
v -0.023881 0.035741 0.138000
v -0.022364 0.033044 0.113000
v -0.022170 0.033180 0.113000
v -0.025606 0.034526 0.138000
v -0.027269 0.033228 0.138000
v -0.025316 0.030847 0.113000
v -0.023958 0.031907 0.113000
v -0.025606 0.034526 0.138000
v -0.023958 0.031907 0.113000
v -0.023771 0.032052 0.113000
v -0.027269 0.033228 0.138000
v -0.028867 0.031850 0.138000
v -0.026799 0.029568 0.113000
v -0.025495 0.030693 0.113000
v -0.027269 0.033228 0.138000
v -0.025495 0.030693 0.113000
v -0.025316 0.030847 0.113000
v -0.028867 0.031850 0.138000
v -0.030395 0.030395 0.138000
v -0.028217 0.028217 0.113000
v -0.026970 0.029405 0.113000
v -0.028867 0.031850 0.138000
v -0.026970 0.029405 0.113000
v -0.026799 0.029568 0.113000
v -0.030395 0.030395 0.138000
v -0.031850 0.028867 0.138000
v -0.029568 0.026799 0.113000
v -0.028380 0.028046 0.113000
v -0.030395 0.030395 0.138000
v -0.028380 0.028046 0.113000
v -0.028217 0.028217 0.113000
v -0.031850 0.028867 0.138000
v -0.033228 0.027269 0.138000
v -0.030847 0.025316 0.113000
v -0.029722 0.026619 0.113000
v -0.031850 0.028867 0.138000
v -0.029722 0.026619 0.113000
v -0.029568 0.026799 0.113000
v -0.033228 0.027269 0.138000
v -0.034526 0.025606 0.138000
v -0.032052 0.023771 0.113000
v -0.030993 0.025129 0.113000
v -0.033228 0.027269 0.138000
v -0.030993 0.025129 0.113000
v -0.030847 0.025316 0.113000
v -0.034526 0.025606 0.138000
v -0.035741 0.023881 0.138000
v -0.033180 0.022170 0.113000
v -0.032188 0.023578 0.113000
v -0.034526 0.025606 0.138000
v -0.032188 0.023578 0.113000
v -0.032052 0.023771 0.113000
v -0.035741 0.023881 0.138000
v -0.036869 0.022099 0.138000
v -0.034228 0.020515 0.113000
v -0.033307 0.021970 0.113000
v -0.035741 0.023881 0.138000
v -0.033307 0.021970 0.113000
v -0.033180 0.022170 0.113000
v -0.036869 0.022099 0.138000
v -0.037909 0.020263 0.138000
v -0.035193 0.018811 0.113000
v -0.034344 0.020309 0.113000
v -0.036869 0.022099 0.138000
v -0.034344 0.020309 0.113000
v -0.034228 0.020515 0.113000
v -0.037909 0.020263 0.138000
v -0.038858 0.018378 0.138000
v -0.036074 0.017062 0.113000
v -0.035300 0.018600 0.113000
v -0.037909 0.020263 0.138000
v -0.035300 0.018600 0.113000
v -0.035193 0.018811 0.113000
v -0.038858 0.018378 0.138000
v -0.039713 0.016450 0.138000
v -0.036868 0.015271 0.113000
v -0.036170 0.016845 0.113000
v -0.038858 0.018378 0.138000
v -0.036170 0.016845 0.113000
v -0.036074 0.017062 0.113000
v -0.039713 0.016450 0.138000
v -0.040472 0.014481 0.138000
v -0.037572 0.013444 0.113000
v -0.036953 0.015050 0.113000
v -0.039713 0.016450 0.138000
v -0.036953 0.015050 0.113000
v -0.036868 0.015271 0.113000
v -0.040472 0.014481 0.138000
v -0.041134 0.012478 0.138000
v -0.038187 0.011584 0.113000
v -0.037647 0.013219 0.113000
v -0.040472 0.014481 0.138000
v -0.037647 0.013219 0.113000
v -0.037572 0.013444 0.113000
v -0.041134 0.012478 0.138000
v -0.041697 0.010444 0.138000
v -0.038709 0.009696 0.113000
v -0.038250 0.011356 0.113000
v -0.041134 0.012478 0.138000
v -0.038250 0.011356 0.113000
v -0.038187 0.011584 0.113000
v -0.041697 0.010444 0.138000
v -0.042159 0.008386 0.138000
v -0.039138 0.007785 0.113000
v -0.038761 0.009465 0.113000
v -0.041697 0.010444 0.138000
v -0.038761 0.009465 0.113000
v -0.038709 0.009696 0.113000
v -0.042159 0.008386 0.138000
v -0.042520 0.006307 0.138000
v -0.039473 0.005855 0.113000
v -0.039179 0.007552 0.113000
v -0.042159 0.008386 0.138000
v -0.039179 0.007552 0.113000
v -0.039138 0.007785 0.113000
v -0.042520 0.006307 0.138000
v -0.042778 0.004213 0.138000
v -0.039713 0.003911 0.113000
v -0.039502 0.005620 0.113000
v -0.042520 0.006307 0.138000
v -0.039502 0.005620 0.113000
v -0.039473 0.005855 0.113000
v -0.042778 0.004213 0.138000
v -0.042933 0.002109 0.138000
v -0.039857 0.001958 0.113000
v -0.039730 0.003675 0.113000
v -0.042778 0.004213 0.138000
v -0.039730 0.003675 0.113000
v -0.039713 0.003911 0.113000
v -0.042933 0.002109 0.138000
v -0.042985 0.000000 0.138000
v -0.039905 0.000000 0.113000
v -0.039863 0.001721 0.113000
v -0.042933 0.002109 0.138000
v -0.039863 0.001721 0.113000
v -0.039857 0.001958 0.113000
v -0.042985 0.000000 0.138000
v -0.042933 -0.002109 0.138000
v -0.039857 -0.001958 0.113000
v -0.039899 -0.000237 0.113000
v -0.042985 0.000000 0.138000
v -0.039899 -0.000237 0.113000
v -0.039905 0.000000 0.113000
v -0.042933 -0.002109 0.138000
v -0.042778 -0.004213 0.138000
v -0.039713 -0.003911 0.113000
v -0.039840 -0.002194 0.113000
v -0.042933 -0.002109 0.138000
v -0.039840 -0.002194 0.113000
v -0.039857 -0.001958 0.113000
v -0.042778 -0.004213 0.138000
v -0.042520 -0.006307 0.138000
v -0.039473 -0.005855 0.113000
v -0.039684 -0.004146 0.113000
v -0.042778 -0.004213 0.138000
v -0.039684 -0.004146 0.113000
v -0.039713 -0.003911 0.113000
v -0.042520 -0.006307 0.138000
v -0.042159 -0.008386 0.138000
v -0.039138 -0.007785 0.113000
v -0.039433 -0.006088 0.113000
v -0.042520 -0.006307 0.138000
v -0.039433 -0.006088 0.113000
v -0.039473 -0.005855 0.113000
v -0.042159 -0.008386 0.138000
v -0.041697 -0.010444 0.138000
v -0.038709 -0.009696 0.113000
v -0.039087 -0.008016 0.113000
v -0.042159 -0.008386 0.138000
v -0.039087 -0.008016 0.113000
v -0.039138 -0.007785 0.113000
v -0.041697 -0.010444 0.138000
v -0.041134 -0.012478 0.138000
v -0.038187 -0.011584 0.113000
v -0.038646 -0.009924 0.113000
v -0.041697 -0.010444 0.138000
v -0.038646 -0.009924 0.113000
v -0.038709 -0.009696 0.113000
v -0.041134 -0.012478 0.138000
v -0.040472 -0.014481 0.138000
v -0.037572 -0.013444 0.113000
v -0.038113 -0.011809 0.113000
v -0.041134 -0.012478 0.138000
v -0.038113 -0.011809 0.113000
v -0.038187 -0.011584 0.113000
v -0.040472 -0.014481 0.138000
v -0.039713 -0.016450 0.138000
v -0.036868 -0.015271 0.113000
v -0.037487 -0.013664 0.113000
v -0.040472 -0.014481 0.138000
v -0.037487 -0.013664 0.113000
v -0.037572 -0.013444 0.113000
v -0.039713 -0.016450 0.138000
v -0.038858 -0.018378 0.138000
v -0.036074 -0.017062 0.113000
v -0.036772 -0.015487 0.113000
v -0.039713 -0.016450 0.138000
v -0.036772 -0.015487 0.113000
v -0.036868 -0.015271 0.113000
v -0.038858 -0.018378 0.138000
v -0.037909 -0.020263 0.138000
v -0.035193 -0.018811 0.113000
v -0.035967 -0.017273 0.113000
v -0.038858 -0.018378 0.138000
v -0.035967 -0.017273 0.113000
v -0.036074 -0.017062 0.113000
v -0.037909 -0.020263 0.138000
v -0.036869 -0.022099 0.138000
v -0.034228 -0.020515 0.113000
v -0.035077 -0.019017 0.113000
v -0.037909 -0.020263 0.138000
v -0.035077 -0.019017 0.113000
v -0.035193 -0.018811 0.113000
v -0.036869 -0.022099 0.138000
v -0.035741 -0.023881 0.138000
v -0.033180 -0.022170 0.113000
v -0.034101 -0.020715 0.113000
v -0.036869 -0.022099 0.138000
v -0.034101 -0.020715 0.113000
v -0.034228 -0.020515 0.113000
v -0.035741 -0.023881 0.138000
v -0.034526 -0.025606 0.138000
v -0.032052 -0.023771 0.113000
v -0.033044 -0.022364 0.113000
v -0.035741 -0.023881 0.138000
v -0.033044 -0.022364 0.113000
v -0.033180 -0.022170 0.113000
v -0.034526 -0.025606 0.138000
v -0.033228 -0.027269 0.138000
v -0.030847 -0.025316 0.113000
v -0.031907 -0.023958 0.113000
v -0.034526 -0.025606 0.138000
v -0.031907 -0.023958 0.113000
v -0.032052 -0.023771 0.113000
v -0.033228 -0.027269 0.138000
v -0.031850 -0.028867 0.138000
v -0.029568 -0.026799 0.113000
v -0.030693 -0.025495 0.113000
v -0.033228 -0.027269 0.138000
v -0.030693 -0.025495 0.113000
v -0.030847 -0.025316 0.113000
v -0.031850 -0.028867 0.138000
v -0.030395 -0.030395 0.138000
v -0.028217 -0.028217 0.113000
v -0.029405 -0.026970 0.113000
v -0.031850 -0.028867 0.138000
v -0.029405 -0.026970 0.113000
v -0.029568 -0.026799 0.113000
v -0.030395 -0.030395 0.138000
v -0.028867 -0.031850 0.138000
v -0.026799 -0.029568 0.113000
v -0.028046 -0.028380 0.113000
v -0.030395 -0.030395 0.138000
v -0.028046 -0.028380 0.113000
v -0.028217 -0.028217 0.113000
v -0.028867 -0.031850 0.138000
v -0.027269 -0.033228 0.138000
v -0.025316 -0.030847 0.113000
v -0.026619 -0.029722 0.113000
v -0.028867 -0.031850 0.138000
v -0.026619 -0.029722 0.113000
v -0.026799 -0.029568 0.113000
v -0.027269 -0.033228 0.138000
v -0.025606 -0.034526 0.138000
v -0.023771 -0.032052 0.113000
v -0.025129 -0.030993 0.113000
v -0.027269 -0.033228 0.138000
v -0.025129 -0.030993 0.113000
v -0.025316 -0.030847 0.113000
v -0.025606 -0.034526 0.138000
v -0.023881 -0.035741 0.138000
v -0.022170 -0.033180 0.113000
v -0.023578 -0.032188 0.113000
v -0.025606 -0.034526 0.138000
v -0.023578 -0.032188 0.113000
v -0.023771 -0.032052 0.113000
v -0.023881 -0.035741 0.138000
v -0.022099 -0.036869 0.138000
v -0.020515 -0.034228 0.113000
v -0.021970 -0.033307 0.113000
v -0.023881 -0.035741 0.138000
v -0.021970 -0.033307 0.113000
v -0.022170 -0.033180 0.113000
v -0.022099 -0.036869 0.138000
v -0.020263 -0.037909 0.138000
v -0.018811 -0.035193 0.113000
v -0.020309 -0.034344 0.113000
v -0.022099 -0.036869 0.138000
v -0.020309 -0.034344 0.113000
v -0.020515 -0.034228 0.113000
v -0.020263 -0.037909 0.138000
v -0.018378 -0.038858 0.138000
v -0.017062 -0.036074 0.113000
v -0.018600 -0.035300 0.113000
v -0.020263 -0.037909 0.138000
v -0.018600 -0.035300 0.113000
v -0.018811 -0.035193 0.113000
v -0.018378 -0.038858 0.138000
v -0.016450 -0.039713 0.138000
v -0.015271 -0.036868 0.113000
v -0.016845 -0.036170 0.113000
v -0.018378 -0.038858 0.138000
v -0.016845 -0.036170 0.113000
v -0.017062 -0.036074 0.113000
v -0.016450 -0.039713 0.138000
v -0.014481 -0.040472 0.138000
v -0.013444 -0.037572 0.113000
v -0.015050 -0.036953 0.113000
v -0.016450 -0.039713 0.138000
v -0.015050 -0.036953 0.113000
v -0.015271 -0.036868 0.113000
v -0.014481 -0.040472 0.138000
v -0.012478 -0.041134 0.138000
v -0.011584 -0.038187 0.113000
v -0.013219 -0.037647 0.113000
v -0.014481 -0.040472 0.138000
v -0.013219 -0.037647 0.113000
v -0.013444 -0.037572 0.113000
v -0.012478 -0.041134 0.138000
v -0.010444 -0.041697 0.138000
v -0.009696 -0.038709 0.113000
v -0.011356 -0.038250 0.113000
v -0.012478 -0.041134 0.138000
v -0.011356 -0.038250 0.113000
v -0.011584 -0.038187 0.113000
v -0.010444 -0.041697 0.138000
v -0.008386 -0.042159 0.138000
v -0.007785 -0.039138 0.113000
v -0.009465 -0.038761 0.113000
v -0.010444 -0.041697 0.138000
v -0.009465 -0.038761 0.113000
v -0.009696 -0.038709 0.113000
v -0.008386 -0.042159 0.138000
v -0.006307 -0.042520 0.138000
v -0.005855 -0.039473 0.113000
v -0.007552 -0.039179 0.113000
v -0.008386 -0.042159 0.138000
v -0.007552 -0.039179 0.113000
v -0.007785 -0.039138 0.113000
v -0.006307 -0.042520 0.138000
v -0.004213 -0.042778 0.138000
v -0.003911 -0.039713 0.113000
v -0.005620 -0.039502 0.113000
v -0.006307 -0.042520 0.138000
v -0.005620 -0.039502 0.113000
v -0.005855 -0.039473 0.113000
v -0.004213 -0.042778 0.138000
v -0.002109 -0.042933 0.138000
v -0.001958 -0.039857 0.113000
v -0.003675 -0.039730 0.113000
v -0.004213 -0.042778 0.138000
v -0.003675 -0.039730 0.113000
v -0.003911 -0.039713 0.113000
v -0.002109 -0.042933 0.138000
v -0.000000 -0.042985 0.138000
v 0.000000 -0.039905 0.113000
v -0.001721 -0.039863 0.113000
v -0.002109 -0.042933 0.138000
v -0.001721 -0.039863 0.113000
v -0.001958 -0.039857 0.113000
v -0.000000 -0.042985 0.138000
v 0.002109 -0.042933 0.138000
v 0.001958 -0.039857 0.113000
v 0.000237 -0.039899 0.113000
v -0.000000 -0.042985 0.138000
v 0.000237 -0.039899 0.113000
v 0.000000 -0.039905 0.113000
v 0.002109 -0.042933 0.138000
v 0.004213 -0.042778 0.138000
v 0.003911 -0.039713 0.113000
v 0.002194 -0.039840 0.113000
v 0.002109 -0.042933 0.138000
v 0.002194 -0.039840 0.113000
v 0.001958 -0.039857 0.113000
v 0.004213 -0.042778 0.138000
v 0.006307 -0.042520 0.138000
v 0.005855 -0.039473 0.113000
v 0.004146 -0.039684 0.113000
v 0.004213 -0.042778 0.138000
v 0.004146 -0.039684 0.113000
v 0.003911 -0.039713 0.113000
v 0.006307 -0.042520 0.138000
v 0.008386 -0.042159 0.138000
v 0.007785 -0.039138 0.113000
v 0.006088 -0.039433 0.113000
v 0.006307 -0.042520 0.138000
v 0.006088 -0.039433 0.113000
v 0.005855 -0.039473 0.113000
v 0.008386 -0.042159 0.138000
v 0.010444 -0.041697 0.138000
v 0.009696 -0.038709 0.113000
v 0.008016 -0.039087 0.113000
v 0.008386 -0.042159 0.138000
v 0.008016 -0.039087 0.113000
v 0.007785 -0.039138 0.113000
v 0.010444 -0.041697 0.138000
v 0.012478 -0.041134 0.138000
v 0.011584 -0.038187 0.113000
v 0.009924 -0.038646 0.113000
v 0.010444 -0.041697 0.138000
v 0.009924 -0.038646 0.113000
v 0.009696 -0.038709 0.113000
v 0.012478 -0.041134 0.138000
v 0.014481 -0.040472 0.138000
v 0.013444 -0.037572 0.113000
v 0.011809 -0.038113 0.113000
v 0.012478 -0.041134 0.138000
v 0.011809 -0.038113 0.113000
v 0.011584 -0.038187 0.113000
v 0.014481 -0.040472 0.138000
v 0.016450 -0.039713 0.138000
v 0.015271 -0.036868 0.113000
v 0.013664 -0.037487 0.113000
v 0.014481 -0.040472 0.138000
v 0.013664 -0.037487 0.113000
v 0.013444 -0.037572 0.113000
v 0.016450 -0.039713 0.138000
v 0.018378 -0.038858 0.138000
v 0.017062 -0.036074 0.113000
v 0.015487 -0.036772 0.113000
v 0.016450 -0.039713 0.138000
v 0.015487 -0.036772 0.113000
v 0.015271 -0.036868 0.113000
v 0.018378 -0.038858 0.138000
v 0.020263 -0.037909 0.138000
v 0.018811 -0.035193 0.113000
v 0.017273 -0.035967 0.113000
v 0.018378 -0.038858 0.138000
v 0.017273 -0.035967 0.113000
v 0.017062 -0.036074 0.113000
v 0.020263 -0.037909 0.138000
v 0.022099 -0.036869 0.138000
v 0.020515 -0.034228 0.113000
v 0.019017 -0.035077 0.113000
v 0.020263 -0.037909 0.138000
v 0.019017 -0.035077 0.113000
v 0.018811 -0.035193 0.113000
v 0.022099 -0.036869 0.138000
v 0.023881 -0.035741 0.138000
v 0.022170 -0.033180 0.113000
v 0.020715 -0.034101 0.113000
v 0.022099 -0.036869 0.138000
v 0.020715 -0.034101 0.113000
v 0.020515 -0.034228 0.113000
v 0.023881 -0.035741 0.138000
v 0.025606 -0.034526 0.138000
v 0.023771 -0.032052 0.113000
v 0.022364 -0.033044 0.113000
v 0.023881 -0.035741 0.138000
v 0.022364 -0.033044 0.113000
v 0.022170 -0.033180 0.113000
v 0.025606 -0.034526 0.138000
v 0.027269 -0.033228 0.138000
v 0.025316 -0.030847 0.113000
v 0.023958 -0.031907 0.113000
v 0.025606 -0.034526 0.138000
v 0.023958 -0.031907 0.113000
v 0.023771 -0.032052 0.113000
v 0.027269 -0.033228 0.138000
v 0.028867 -0.031850 0.138000
v 0.026799 -0.029568 0.113000
v 0.025495 -0.030693 0.113000
v 0.027269 -0.033228 0.138000
v 0.025495 -0.030693 0.113000
v 0.025316 -0.030847 0.113000
v 0.028867 -0.031850 0.138000
v 0.030395 -0.030395 0.138000
v 0.028217 -0.028217 0.113000
v 0.026970 -0.029405 0.113000
v 0.028867 -0.031850 0.138000
v 0.026970 -0.029405 0.113000
v 0.026799 -0.029568 0.113000
v 0.030395 -0.030395 0.138000
v 0.031850 -0.028867 0.138000
v 0.029568 -0.026799 0.113000
v 0.028380 -0.028046 0.113000
v 0.030395 -0.030395 0.138000
v 0.028380 -0.028046 0.113000
v 0.028217 -0.028217 0.113000
v 0.031850 -0.028867 0.138000
v 0.033228 -0.027269 0.138000
v 0.030847 -0.025316 0.113000
v 0.029722 -0.026619 0.113000
v 0.031850 -0.028867 0.138000
v 0.029722 -0.026619 0.113000
v 0.029568 -0.026799 0.113000
v 0.033228 -0.027269 0.138000
v 0.034526 -0.025606 0.138000
v 0.032052 -0.023771 0.113000
v 0.030993 -0.025129 0.113000
v 0.033228 -0.027269 0.138000
v 0.030993 -0.025129 0.113000
v 0.030847 -0.025316 0.113000
v 0.034526 -0.025606 0.138000
v 0.035741 -0.023881 0.138000
v 0.033180 -0.022170 0.113000
v 0.032188 -0.023578 0.113000
v 0.034526 -0.025606 0.138000
v 0.032188 -0.023578 0.113000
v 0.032052 -0.023771 0.113000
v 0.035741 -0.023881 0.138000
v 0.036869 -0.022099 0.138000
v 0.034228 -0.020515 0.113000
v 0.033307 -0.021970 0.113000
v 0.035741 -0.023881 0.138000
v 0.033307 -0.021970 0.113000
v 0.033180 -0.022170 0.113000
v 0.036869 -0.022099 0.138000
v 0.037909 -0.020263 0.138000
v 0.035193 -0.018811 0.113000
v 0.034344 -0.020309 0.113000
v 0.036869 -0.022099 0.138000
v 0.034344 -0.020309 0.113000
v 0.034228 -0.020515 0.113000
v 0.037909 -0.020263 0.138000
v 0.038858 -0.018378 0.138000
v 0.036074 -0.017062 0.113000
v 0.035300 -0.018600 0.113000
v 0.037909 -0.020263 0.138000
v 0.035300 -0.018600 0.113000
v 0.035193 -0.018811 0.113000
v 0.038858 -0.018378 0.138000
v 0.039713 -0.016450 0.138000
v 0.036868 -0.015271 0.113000
v 0.036170 -0.016845 0.113000
v 0.038858 -0.018378 0.138000
v 0.036170 -0.016845 0.113000
v 0.036074 -0.017062 0.113000
v 0.039713 -0.016450 0.138000
v 0.040472 -0.014481 0.138000
v 0.037572 -0.013444 0.113000
v 0.036953 -0.015050 0.113000
v 0.039713 -0.016450 0.138000
v 0.036953 -0.015050 0.113000
v 0.036868 -0.015271 0.113000
v 0.040472 -0.014481 0.138000
v 0.041134 -0.012478 0.138000
v 0.038187 -0.011584 0.113000
v 0.037647 -0.013219 0.113000
v 0.040472 -0.014481 0.138000
v 0.037647 -0.013219 0.113000
v 0.037572 -0.013444 0.113000
v 0.041134 -0.012478 0.138000
v 0.041697 -0.010444 0.138000
v 0.038709 -0.009696 0.113000
v 0.038250 -0.011356 0.113000
v 0.041134 -0.012478 0.138000
v 0.038250 -0.011356 0.113000
v 0.038187 -0.011584 0.113000
v 0.041697 -0.010444 0.138000
v 0.042159 -0.008386 0.138000
v 0.039138 -0.007785 0.113000
v 0.038761 -0.009465 0.113000
v 0.041697 -0.010444 0.138000
v 0.038761 -0.009465 0.113000
v 0.038709 -0.009696 0.113000
v 0.042159 -0.008386 0.138000
v 0.042520 -0.006307 0.138000
v 0.039473 -0.005855 0.113000
v 0.039179 -0.007552 0.113000
v 0.042159 -0.008386 0.138000
v 0.039179 -0.007552 0.113000
v 0.039138 -0.007785 0.113000
v 0.042520 -0.006307 0.138000
v 0.042778 -0.004213 0.138000
v 0.039713 -0.003911 0.113000
v 0.039502 -0.005620 0.113000
v 0.042520 -0.006307 0.138000
v 0.039502 -0.005620 0.113000
v 0.039473 -0.005855 0.113000
v 0.042778 -0.004213 0.138000
v 0.042933 -0.002109 0.138000
v 0.039857 -0.001958 0.113000
v 0.039730 -0.003675 0.113000
v 0.042778 -0.004213 0.138000
v 0.039730 -0.003675 0.113000
v 0.039713 -0.003911 0.113000
v 0.042933 -0.002109 0.138000
v 0.042985 0.000000 0.138000
v 0.039905 0.000000 0.113000
v 0.039863 -0.001721 0.113000
v 0.042933 -0.002109 0.138000
v 0.039863 -0.001721 0.113000
v 0.039857 -0.001958 0.113000
f 1 2 3
f 4 5 6
f 4 6 7
f 8 9 10
f 11 12 13
f 11 13 14
f 15 16 17
f 18 19 20
f 18 20 21
f 22 23 24
f 25 26 27
f 25 27 28
f 29 30 31
f 32 33 34
f 32 34 35
f 36 37 38
f 39 40 41
f 39 41 42
f 43 44 45
f 46 47 48
f 46 48 49
f 50 51 52
f 53 54 55
f 53 55 56
f 57 58 59
f 60 61 62
f 60 62 63
f 64 65 66
f 67 68 69
f 67 69 70
f 71 72 73
f 74 75 76
f 74 76 77
f 78 79 80
f 81 82 83
f 81 83 84
f 85 86 87
f 88 89 90
f 88 90 91
f 92 93 94
f 95 96 97
f 95 97 98
f 99 100 101
f 102 103 104
f 102 104 105
f 106 107 108
f 109 110 111
f 109 111 112
f 113 114 115
f 116 117 118
f 116 118 119
f 120 121 122
f 123 124 125
f 123 125 126
f 127 128 129
f 130 131 132
f 130 132 133
f 134 135 136
f 137 138 139
f 137 139 140
f 141 142 143
f 144 145 146
f 144 146 147
f 148 149 150
f 151 152 153
f 151 153 154
f 155 156 157
f 158 159 160
f 158 160 161
f 162 163 164
f 165 166 167
f 165 167 168
f 169 170 171
f 172 173 174
f 172 174 175
f 176 177 178
f 179 180 181
f 179 181 182
f 183 184 185
f 186 187 188
f 186 188 189
f 190 191 192
f 193 194 195
f 193 195 196
f 197 198 199
f 200 201 202
f 200 202 203
f 204 205 206
f 207 208 209
f 207 209 210
f 211 212 213
f 214 215 216
f 214 216 217
f 218 219 220
f 221 222 223
f 221 223 224
f 225 226 227
f 228 229 230
f 228 230 231
f 232 233 234
f 235 236 237
f 235 237 238
f 239 240 241
f 242 243 244
f 242 244 245
f 246 247 248
f 249 250 251
f 249 251 252
f 253 254 255
f 256 257 258
f 256 258 259
f 260 261 262
f 263 264 265
f 263 265 266
f 267 268 269
f 270 271 272
f 270 272 273
f 274 275 276
f 277 278 279
f 277 279 280
f 281 282 283
f 284 285 286
f 284 286 287
f 288 289 290
f 291 292 293
f 291 293 294
f 295 296 297
f 298 299 300
f 298 300 301
f 302 303 304
f 305 306 307
f 305 307 308
f 309 310 311
f 312 313 314
f 312 314 315
f 316 317 318
f 319 320 321
f 319 321 322
f 323 324 325
f 326 327 328
f 326 328 329
f 330 331 332
f 333 334 335
f 333 335 336
f 337 338 339
f 340 341 342
f 340 342 343
f 344 345 346
f 347 348 349
f 347 349 350
f 351 352 353
f 354 355 356
f 354 356 357
f 358 359 360
f 361 362 363
f 361 363 364
f 365 366 367
f 368 369 370
f 368 370 371
f 372 373 374
f 375 376 377
f 375 377 378
f 379 380 381
f 382 383 384
f 382 384 385
f 386 387 388
f 389 390 391
f 389 391 392
f 393 394 395
f 396 397 398
f 396 398 399
f 400 401 402
f 403 404 405
f 403 405 406
f 407 408 409
f 410 411 412
f 410 412 413
f 414 415 416
f 417 418 419
f 417 419 420
f 421 422 423
f 424 425 426
f 424 426 427
f 428 429 430
f 431 432 433
f 431 433 434
f 435 436 437
f 438 439 440
f 438 440 441
f 442 443 444
f 445 446 447
f 445 447 448
f 449 450 451
f 452 453 454
f 452 454 455
f 456 457 458
f 459 460 461
f 459 461 462
f 463 464 465
f 466 467 468
f 466 468 469
f 470 471 472
f 473 474 475
f 473 475 476
f 477 478 479
f 480 481 482
f 480 482 483
f 484 485 486
f 487 488 489
f 487 489 490
f 491 492 493
f 494 495 496
f 494 496 497
f 498 499 500
f 501 502 503
f 501 503 504
f 505 506 507
f 508 509 510
f 508 510 511
f 512 513 514
f 515 516 517
f 515 517 518
f 519 520 521
f 522 523 524
f 522 524 525
f 526 527 528
f 529 530 531
f 529 531 532
f 533 534 535
f 536 537 538
f 536 538 539
f 540 541 542
f 543 544 545
f 543 545 546
f 547 548 549
f 550 551 552
f 550 552 553
f 554 555 556
f 557 558 559
f 557 559 560
f 561 562 563
f 564 565 566
f 564 566 567
f 568 569 570
f 571 572 573
f 571 573 574
f 575 576 577
f 578 579 580
f 578 580 581
f 582 583 584
f 585 586 587
f 585 587 588
f 589 590 591
f 592 593 594
f 592 594 595
f 596 597 598
f 599 600 601
f 599 601 602
f 603 604 605
f 606 607 608
f 606 608 609
f 610 611 612
f 613 614 615
f 613 615 616
f 617 618 619
f 620 621 622
f 620 622 623
f 624 625 626
f 627 628 629
f 627 629 630
f 631 632 633
f 634 635 636
f 634 636 637
f 638 639 640
f 641 642 643
f 641 643 644
f 645 646 647
f 648 649 650
f 648 650 651
f 652 653 654
f 655 656 657
f 655 657 658
f 659 660 661
f 662 663 664
f 662 664 665
f 666 667 668
f 669 670 671
f 669 671 672
f 673 674 675
f 676 677 678
f 676 678 679
f 680 681 682
f 683 684 685
f 683 685 686
f 687 688 689
f 690 691 692
f 690 692 693
f 694 695 696
f 697 698 699
f 697 699 700
f 701 702 703
f 704 705 706
f 704 706 707
f 708 709 710
f 711 712 713
f 711 713 714
f 715 716 717
f 718 719 720
f 718 720 721
f 722 723 724
f 725 726 727
f 725 727 728
f 729 730 731
f 732 733 734
f 732 734 735
f 736 737 738
f 739 740 741
f 739 741 742
f 743 744 745
f 746 747 748
f 746 748 749
f 750 751 752
f 753 754 755
f 753 755 756
f 757 758 759
f 760 761 762
f 760 762 763
f 764 765 766
f 767 768 769
f 767 769 770
f 771 772 773
f 774 775 776
f 774 776 777
f 778 779 780
f 781 782 783
f 781 783 784
f 785 786 787
f 788 789 790
f 788 790 791
f 792 793 794
f 795 796 797
f 795 797 798
f 799 800 801
f 802 803 804
f 802 804 805
f 806 807 808
f 809 810 811
f 809 811 812
f 813 814 815
f 816 817 818
f 816 818 819
f 820 821 822
f 823 824 825
f 823 825 826
f 827 828 829
f 830 831 832
f 830 832 833
f 834 835 836
f 837 838 839
f 837 839 840
f 841 842 843
f 844 845 846
f 844 846 847
f 848 849 850
f 851 852 853
f 851 853 854
f 855 856 857
f 858 859 860
f 858 860 861
f 862 863 864
f 865 866 867
f 865 867 868
f 869 870 871
f 872 873 874
f 872 874 875
f 876 877 878
f 879 880 881
f 879 881 882
f 883 884 885
f 886 887 888
f 886 888 889
f 890 891 892
f 893 894 895
f 893 895 896
f 897 898 899
f 900 901 902
f 903 904 905
f 906 907 908
f 909 910 911
f 912 913 914
f 915 916 917
f 918 919 920
f 921 922 923
f 924 925 926
f 927 928 929
f 930 931 932
f 933 934 935
f 936 937 938
f 939 940 941
f 942 943 944
f 945 946 947
f 948 949 950
f 951 952 953
f 954 955 956
f 957 958 959
f 960 961 962
f 963 964 965
f 966 967 968
f 969 970 971
f 972 973 974
f 975 976 977
f 978 979 980
f 981 982 983
f 984 985 986
f 987 988 989
f 990 991 992
f 993 994 995
f 996 997 998
f 999 1000 1001
f 1002 1003 1004
f 1005 1006 1007
f 1008 1009 1010
f 1011 1012 1013
f 1014 1015 1016
f 1017 1018 1019
f 1020 1021 1022
f 1023 1024 1025
f 1026 1027 1028
f 1029 1030 1031
f 1032 1033 1034
f 1035 1036 1037
f 1038 1039 1040
f 1041 1042 1043
f 1044 1045 1046
f 1047 1048 1049
f 1050 1051 1052
f 1053 1054 1055
f 1056 1057 1058
f 1059 1060 1061
f 1062 1063 1064
f 1065 1066 1067
f 1068 1069 1070
f 1071 1072 1073
f 1074 1075 1076
f 1077 1078 1079
f 1080 1081 1082
f 1083 1084 1085
f 1086 1087 1088
f 1089 1090 1091
f 1092 1093 1094
f 1095 1096 1097
f 1098 1099 1100
f 1101 1102 1103
f 1104 1105 1106
f 1107 1108 1109
f 1110 1111 1112
f 1113 1114 1115
f 1116 1117 1118
f 1119 1120 1121
f 1122 1123 1124
f 1125 1126 1127
f 1128 1129 1130
f 1131 1132 1133
f 1134 1135 1136
f 1137 1138 1139
f 1140 1141 1142
f 1143 1144 1145
f 1146 1147 1148
f 1149 1150 1151
f 1152 1153 1154
f 1155 1156 1157
f 1158 1159 1160
f 1161 1162 1163
f 1164 1165 1166
f 1167 1168 1169
f 1170 1171 1172
f 1173 1174 1175
f 1176 1177 1178
f 1179 1180 1181
f 1182 1183 1184
f 1185 1186 1187
f 1188 1189 1190
f 1191 1192 1193
f 1194 1195 1196
f 1197 1198 1199
f 1200 1201 1202
f 1203 1204 1205
f 1206 1207 1208
f 1209 1210 1211
f 1212 1213 1214
f 1215 1216 1217
f 1218 1219 1220
f 1221 1222 1223
f 1224 1225 1226
f 1227 1228 1229
f 1230 1231 1232
f 1233 1234 1235
f 1236 1237 1238
f 1239 1240 1241
f 1242 1243 1244
f 1245 1246 1247
f 1248 1249 1250
f 1251 1252 1253
f 1254 1255 1256
f 1257 1258 1259
f 1260 1261 1262
f 1263 1264 1265
f 1266 1267 1268
f 1269 1270 1271
f 1272 1273 1274
f 1275 1276 1277
f 1278 1279 1280
f 1281 1282 1283
f 1284 1285 1286
f 1287 1288 1289
f 1290 1291 1292
f 1293 1294 1295
f 1296 1297 1298
f 1299 1300 1301
f 1302 1303 1304
f 1305 1306 1307
f 1308 1309 1310
f 1311 1312 1313
f 1314 1315 1316
f 1317 1318 1319
f 1320 1321 1322
f 1323 1324 1325
f 1326 1327 1328
f 1329 1330 1331
f 1332 1333 1334
f 1335 1336 1337
f 1338 1339 1340
f 1341 1342 1343
f 1344 1345 1346
f 1347 1348 1349
f 1350 1351 1352
f 1353 1354 1355
f 1356 1357 1358
f 1359 1360 1361
f 1362 1363 1364
f 1365 1366 1367
f 1368 1369 1370
f 1371 1372 1373
f 1374 1375 1376
f 1377 1378 1379
f 1380 1381 1382
f 1383 1384 1385
f 1386 1387 1388
f 1389 1390 1391
f 1392 1393 1394
f 1395 1396 1397
f 1398 1399 1400
f 1401 1402 1403
f 1404 1405 1406
f 1407 1408 1409
f 1410 1411 1412
f 1413 1414 1415
f 1416 1417 1418
f 1419 1420 1421
f 1422 1423 1424
f 1425 1426 1427
f 1428 1429 1430
f 1431 1432 1433
f 1434 1435 1436
f 1437 1438 1439
f 1440 1441 1442
f 1443 1444 1445
f 1446 1447 1448
f 1449 1450 1451
f 1452 1453 1454
f 1455 1456 1457
f 1458 1459 1460
f 1461 1462 1463
f 1464 1465 1466
f 1467 1468 1469
f 1470 1471 1472
f 1473 1474 1475
f 1476 1477 1478
f 1479 1480 1481
f 1482 1483 1484
f 1485 1486 1487
f 1488 1489 1490
f 1491 1492 1493
f 1494 1495 1496
f 1497 1498 1499
f 1500 1501 1502
f 1503 1504 1505
f 1506 1507 1508
f 1509 1510 1511
f 1512 1513 1514
f 1515 1516 1517
f 1518 1519 1520
f 1521 1522 1523
f 1524 1525 1526
f 1527 1528 1529
f 1530 1531 1532
f 1533 1534 1535
f 1536 1537 1538
f 1539 1540 1541
f 1542 1543 1544
f 1545 1546 1547
f 1548 1549 1550
f 1551 1552 1553
f 1554 1555 1556
f 1557 1558 1559
f 1560 1561 1562
f 1563 1564 1565
f 1566 1567 1568
f 1569 1570 1571
f 1572 1573 1574
f 1575 1576 1577
f 1578 1579 1580
f 1581 1582 1583
f 1584 1585 1586
f 1587 1588 1589
f 1590 1591 1592
f 1593 1594 1595
f 1596 1597 1598
f 1599 1600 1601
f 1602 1603 1604
f 1605 1606 1607
f 1608 1609 1610
f 1611 1612 1613
f 1614 1615 1616
f 1617 1618 1619
f 1620 1621 1622
f 1623 1624 1625
f 1626 1627 1628
f 1629 1630 1631
f 1632 1633 1634
f 1635 1636 1637
f 1638 1639 1640
f 1641 1642 1643
f 1644 1645 1646
f 1647 1648 1649
f 1650 1651 1652
f 1653 1654 1655
f 1656 1657 1658
f 1659 1660 1661
f 1662 1663 1664
f 1665 1666 1667
f 1665 1667 1668
f 1669 1670 1671
f 1672 1673 1674
f 1672 1674 1675
f 1676 1677 1678
f 1679 1680 1681
f 1679 1681 1682
f 1683 1684 1685
f 1686 1687 1688
f 1686 1688 1689
f 1690 1691 1692
f 1693 1694 1695
f 1693 1695 1696
f 1697 1698 1699
f 1700 1701 1702
f 1700 1702 1703
f 1704 1705 1706
f 1707 1708 1709
f 1707 1709 1710
f 1711 1712 1713
f 1714 1715 1716
f 1714 1716 1717
f 1718 1719 1720
f 1721 1722 1723
f 1721 1723 1724
f 1725 1726 1727
f 1728 1729 1730
f 1728 1730 1731
f 1732 1733 1734
f 1735 1736 1737
f 1735 1737 1738
f 1739 1740 1741
f 1742 1743 1744
f 1742 1744 1745
f 1746 1747 1748
f 1749 1750 1751
f 1749 1751 1752
f 1753 1754 1755
f 1756 1757 1758
f 1756 1758 1759
f 1760 1761 1762
f 1763 1764 1765
f 1763 1765 1766
f 1767 1768 1769
f 1770 1771 1772
f 1770 1772 1773
f 1774 1775 1776
f 1777 1778 1779
f 1777 1779 1780
f 1781 1782 1783
f 1784 1785 1786
f 1784 1786 1787
f 1788 1789 1790
f 1791 1792 1793
f 1791 1793 1794
f 1795 1796 1797
f 1798 1799 1800
f 1798 1800 1801
f 1802 1803 1804
f 1805 1806 1807
f 1805 1807 1808
f 1809 1810 1811
f 1812 1813 1814
f 1812 1814 1815
f 1816 1817 1818
f 1819 1820 1821
f 1819 1821 1822
f 1823 1824 1825
f 1826 1827 1828
f 1826 1828 1829
f 1830 1831 1832
f 1833 1834 1835
f 1833 1835 1836
f 1837 1838 1839
f 1840 1841 1842
f 1840 1842 1843
f 1844 1845 1846
f 1847 1848 1849
f 1847 1849 1850
f 1851 1852 1853
f 1854 1855 1856
f 1854 1856 1857
f 1858 1859 1860
f 1861 1862 1863
f 1861 1863 1864
f 1865 1866 1867
f 1868 1869 1870
f 1868 1870 1871
f 1872 1873 1874
f 1875 1876 1877
f 1875 1877 1878
f 1879 1880 1881
f 1882 1883 1884
f 1882 1884 1885
f 1886 1887 1888
f 1889 1890 1891
f 1889 1891 1892
f 1893 1894 1895
f 1896 1897 1898
f 1896 1898 1899
f 1900 1901 1902
f 1903 1904 1905
f 1903 1905 1906
f 1907 1908 1909
f 1910 1911 1912
f 1910 1912 1913
f 1914 1915 1916
f 1917 1918 1919
f 1917 1919 1920
f 1921 1922 1923
f 1924 1925 1926
f 1924 1926 1927
f 1928 1929 1930
f 1931 1932 1933
f 1931 1933 1934
f 1935 1936 1937
f 1938 1939 1940
f 1938 1940 1941
f 1942 1943 1944
f 1945 1946 1947
f 1945 1947 1948
f 1949 1950 1951
f 1952 1953 1954
f 1952 1954 1955
f 1956 1957 1958
f 1959 1960 1961
f 1959 1961 1962
f 1963 1964 1965
f 1966 1967 1968
f 1966 1968 1969
f 1970 1971 1972
f 1973 1974 1975
f 1973 1975 1976
f 1977 1978 1979
f 1980 1981 1982
f 1980 1982 1983
f 1984 1985 1986
f 1987 1988 1989
f 1987 1989 1990
f 1991 1992 1993
f 1994 1995 1996
f 1994 1996 1997
f 1998 1999 2000
f 2001 2002 2003
f 2001 2003 2004
f 2005 2006 2007
f 2008 2009 2010
f 2008 2010 2011
f 2012 2013 2014
f 2015 2016 2017
f 2015 2017 2018
f 2019 2020 2021
f 2022 2023 2024
f 2022 2024 2025
f 2026 2027 2028
f 2029 2030 2031
f 2029 2031 2032
f 2033 2034 2035
f 2036 2037 2038
f 2036 2038 2039
f 2040 2041 2042
f 2043 2044 2045
f 2043 2045 2046
f 2047 2048 2049
f 2050 2051 2052
f 2050 2052 2053
f 2054 2055 2056
f 2057 2058 2059
f 2057 2059 2060
f 2061 2062 2063
f 2064 2065 2066
f 2064 2066 2067
f 2068 2069 2070
f 2071 2072 2073
f 2071 2073 2074
f 2075 2076 2077
f 2078 2079 2080
f 2078 2080 2081
f 2082 2083 2084
f 2085 2086 2087
f 2085 2087 2088
f 2089 2090 2091
f 2092 2093 2094
f 2092 2094 2095
f 2096 2097 2098
f 2099 2100 2101
f 2099 2101 2102
f 2103 2104 2105
f 2106 2107 2108
f 2106 2108 2109
f 2110 2111 2112
f 2113 2114 2115
f 2113 2115 2116
f 2117 2118 2119
f 2120 2121 2122
f 2120 2122 2123
f 2124 2125 2126
f 2127 2128 2129
f 2127 2129 2130
f 2131 2132 2133
f 2134 2135 2136
f 2134 2136 2137
f 2138 2139 2140
f 2141 2142 2143
f 2141 2143 2144
f 2145 2146 2147
f 2148 2149 2150
f 2148 2150 2151
f 2152 2153 2154
f 2155 2156 2157
f 2155 2157 2158
f 2159 2160 2161
f 2162 2163 2164
f 2162 2164 2165
f 2166 2167 2168
f 2169 2170 2171
f 2169 2171 2172
f 2173 2174 2175
f 2176 2177 2178
f 2176 2178 2179
f 2180 2181 2182
f 2183 2184 2185
f 2183 2185 2186
f 2187 2188 2189
f 2190 2191 2192
f 2190 2192 2193
f 2194 2195 2196
f 2197 2198 2199
f 2197 2199 2200
f 2201 2202 2203
f 2204 2205 2206
f 2204 2206 2207
f 2208 2209 2210
f 2211 2212 2213
f 2211 2213 2214
f 2215 2216 2217
f 2218 2219 2220
f 2218 2220 2221
f 2222 2223 2224
f 2225 2226 2227
f 2225 2227 2228
f 2229 2230 2231
f 2232 2233 2234
f 2232 2234 2235
f 2236 2237 2238
f 2239 2240 2241
f 2239 2241 2242
f 2243 2244 2245
f 2246 2247 2248
f 2246 2248 2249
f 2250 2251 2252
f 2253 2254 2255
f 2253 2255 2256
f 2257 2258 2259
f 2260 2261 2262
f 2260 2262 2263
f 2264 2265 2266
f 2267 2268 2269
f 2267 2269 2270
f 2271 2272 2273
f 2274 2275 2276
f 2274 2276 2277
f 2278 2279 2280
f 2281 2282 2283
f 2281 2283 2284
f 2285 2286 2287
f 2288 2289 2290
f 2288 2290 2291
f 2292 2293 2294
f 2295 2296 2297
f 2295 2297 2298
f 2299 2300 2301
f 2302 2303 2304
f 2302 2304 2305
f 2306 2307 2308
f 2309 2310 2311
f 2309 2311 2312
f 2313 2314 2315
f 2316 2317 2318
f 2316 2318 2319
f 2320 2321 2322
f 2323 2324 2325
f 2323 2325 2326
f 2327 2328 2329
f 2330 2331 2332
f 2330 2332 2333
f 2334 2335 2336
f 2337 2338 2339
f 2337 2339 2340
f 2341 2342 2343
f 2344 2345 2346
f 2344 2346 2347
f 2348 2349 2350
f 2351 2352 2353
f 2351 2353 2354
f 2355 2356 2357
f 2358 2359 2360
f 2358 2360 2361
f 2362 2363 2364
f 2365 2366 2367
f 2365 2367 2368
f 2369 2370 2371
f 2372 2373 2374
f 2372 2374 2375
f 2376 2377 2378
f 2379 2380 2381
f 2379 2381 2382
f 2383 2384 2385
f 2386 2387 2388
f 2386 2388 2389
f 2390 2391 2392
f 2393 2394 2395
f 2393 2395 2396
f 2397 2398 2399
f 2400 2401 2402
f 2400 2402 2403
f 2404 2405 2406
f 2407 2408 2409
f 2407 2409 2410
f 2411 2412 2413
f 2414 2415 2416
f 2414 2416 2417
f 2418 2419 2420
f 2421 2422 2423
f 2421 2423 2424
f 2425 2426 2427
f 2428 2429 2430
f 2428 2430 2431
f 2432 2433 2434
f 2435 2436 2437
f 2435 2437 2438
f 2439 2440 2441
f 2442 2443 2444
f 2442 2444 2445
f 2446 2447 2448
f 2449 2450 2451
f 2449 2451 2452
f 2453 2454 2455
f 2456 2457 2458
f 2456 2458 2459
f 2460 2461 2462
f 2463 2464 2465
f 2463 2465 2466
f 2467 2468 2469
f 2470 2471 2472
f 2470 2472 2473
f 2474 2475 2476
f 2477 2478 2479
f 2477 2479 2480
f 2481 2482 2483
f 2484 2485 2486
f 2484 2486 2487
f 2488 2489 2490
f 2491 2492 2493
f 2491 2493 2494
f 2495 2496 2497
f 2498 2499 2500
f 2498 2500 2501
f 2502 2503 2504
f 2505 2506 2507
f 2505 2507 2508
f 2509 2510 2511
f 2512 2513 2514
f 2512 2514 2515
f 2516 2517 2518
f 2519 2520 2521
f 2519 2521 2522
f 2523 2524 2525
f 2526 2527 2528
f 2526 2528 2529
f 2530 2531 2532
f 2533 2534 2535
f 2533 2535 2536
f 2537 2538 2539
f 2540 2541 2542
f 2540 2542 2543
f 2544 2545 2546
f 2547 2548 2549
f 2547 2549 2550
f 2551 2552 2553
f 2554 2555 2556
f 2554 2556 2557
f 2558 2559 2560
